<svg xmlns="http://www.w3.org/2000/svg" xmlns:xlink="http://www.w3.org/1999/xlink" width="200" zoomAndPan="magnify" viewBox="0 0 150 149.999998" height="200" preserveAspectRatio="xMidYMid meet" version="1.0"><defs><clipPath id="96d6dd1714"><path d="M 75 0 C 33.578125 0 0 33.578125 0 75 C 0 116.421875 33.578125 150 75 150 C 116.421875 150 150 116.421875 150 75 C 150 33.578125 116.421875 0 75 0 Z M 75 0 " clip-rule="nonzero"/></clipPath><clipPath id="0b38fde943"><path d="M 23.644531 75 L 49 75 L 49 82 L 23.644531 82 Z M 23.644531 75 " clip-rule="nonzero"/></clipPath><clipPath id="025f21347d"><path d="M 101 75 L 126.394531 75 L 126.394531 82 L 101 82 Z M 101 75 " clip-rule="nonzero"/></clipPath><clipPath id="35716f262d"><path d="M 50 78 L 66 78 L 66 109.828125 L 50 109.828125 Z M 50 78 " clip-rule="nonzero"/></clipPath><clipPath id="677179e34b"><path d="M 82 78 L 100 78 L 100 109.828125 L 82 109.828125 Z M 82 78 " clip-rule="nonzero"/></clipPath><clipPath id="24cd2c4935"><path d="M 67 78 L 82 78 L 82 109.828125 L 67 109.828125 Z M 67 78 " clip-rule="nonzero"/></clipPath><clipPath id="f629562f6e"><path d="M 52 40.078125 L 98 40.078125 L 98 68 L 52 68 Z M 52 40.078125 " clip-rule="nonzero"/></clipPath></defs><g clip-path="url(#96d6dd1714)"><rect x="-15" width="180" fill="#ff6803" y="-15" height="179.999997" fill-opacity="1"/><path stroke-linecap="butt" transform="matrix(0.75, 0, 0, 0.75, 0.00000125, 0.000002)" fill="none" stroke-linejoin="miter" d="M 100.000004 -0.00000266667 C 44.770834 -0.00000266667 -0.00000166667 44.770833 -0.00000166667 100.000003 C -0.00000166667 155.229173 44.770834 200.000009 100.000004 200.000009 C 155.229174 200.000009 200.00001 155.229173 200.00001 100.000003 C 200.00001 44.770833 155.229174 -0.00000266667 100.000004 -0.00000266667 Z M 100.000004 -0.00000266667 " stroke="#ffffff" stroke-width="10" stroke-opacity="1" stroke-miterlimit="4"/></g><path fill="#ffffff" d="M 48.96875 86.1875 L 48.96875 83.753906 L 26.003906 83.753906 L 26.003906 108.238281 L 48.96875 108.238281 Z M 35.226562 101.703125 C 35.226562 102.21875 34.808594 102.636719 34.292969 102.636719 C 33.777344 102.636719 33.359375 102.21875 33.359375 101.703125 L 33.359375 99.835938 C 33.359375 99.320312 33.777344 98.902344 34.292969 98.902344 C 34.808594 98.902344 35.226562 99.320312 35.226562 99.835938 Z M 35.226562 91.742188 C 35.226562 92.261719 34.808594 92.675781 34.292969 92.675781 C 33.777344 92.675781 33.359375 92.261719 33.359375 91.742188 L 33.359375 89.875 C 33.359375 89.359375 33.777344 88.941406 34.292969 88.941406 C 34.808594 88.941406 35.226562 89.359375 35.226562 89.875 Z M 43.164062 101.703125 C 43.164062 102.21875 42.746094 102.636719 42.230469 102.636719 C 41.714844 102.636719 41.296875 102.21875 41.296875 101.703125 L 41.296875 99.835938 C 41.296875 99.320312 41.714844 98.902344 42.230469 98.902344 C 42.746094 98.902344 43.164062 99.320312 43.164062 99.835938 Z M 43.164062 91.742188 C 43.164062 92.261719 42.746094 92.675781 42.230469 92.675781 C 41.714844 92.675781 41.296875 92.261719 41.296875 91.742188 L 41.296875 89.875 C 41.296875 89.359375 41.714844 88.941406 42.230469 88.941406 C 42.746094 88.941406 43.164062 89.359375 43.164062 89.875 Z M 43.164062 91.742188 " fill-opacity="1" fill-rule="nonzero"/><path fill="#ffffff" d="M 124.09375 83.753906 L 101.128906 83.753906 L 101.128906 108.238281 L 124.09375 108.238281 Z M 108.050781 101.910156 C 108.050781 102.425781 107.632812 102.84375 107.117188 102.84375 C 106.601562 102.84375 106.183594 102.425781 106.183594 101.910156 L 106.183594 100.042969 C 106.183594 99.527344 106.601562 99.109375 107.117188 99.109375 C 107.632812 99.109375 108.050781 99.527344 108.050781 100.042969 Z M 108.050781 91.949219 C 108.050781 92.464844 107.632812 92.882812 107.117188 92.882812 C 106.601562 92.882812 106.183594 92.464844 106.183594 91.949219 L 106.183594 90.082031 C 106.183594 89.566406 106.601562 89.148438 107.117188 89.148438 C 107.632812 89.148438 108.050781 89.566406 108.050781 90.082031 Z M 115.988281 101.910156 C 115.988281 102.425781 115.570312 102.84375 115.054688 102.84375 C 114.539062 102.84375 114.121094 102.425781 114.121094 101.910156 L 114.121094 100.042969 C 114.121094 99.527344 114.539062 99.109375 115.054688 99.109375 C 115.570312 99.109375 115.988281 99.527344 115.988281 100.042969 Z M 115.988281 91.949219 C 115.988281 92.464844 115.570312 92.882812 115.054688 92.882812 C 114.539062 92.882812 114.121094 92.464844 114.121094 91.949219 L 114.121094 90.082031 C 114.121094 89.566406 114.539062 89.148438 115.054688 89.148438 C 115.570312 89.148438 115.988281 89.566406 115.988281 90.082031 Z M 115.988281 91.949219 " fill-opacity="1" fill-rule="nonzero"/><g clip-path="url(#0b38fde943)"><path fill="#ffffff" d="M 23.644531 75.246094 L 48.96875 75.246094 L 48.96875 81.886719 L 23.644531 81.886719 Z M 23.644531 75.246094 " fill-opacity="1" fill-rule="nonzero"/></g><g clip-path="url(#025f21347d)"><path fill="#ffffff" d="M 101.128906 75.246094 L 126.347656 75.246094 L 126.347656 81.886719 L 101.128906 81.886719 Z M 101.128906 75.246094 " fill-opacity="1" fill-rule="nonzero"/></g><g clip-path="url(#35716f262d)"><path fill="#ffffff" d="M 50.835938 78.980469 L 50.835938 109.917969 L 65.964844 109.917969 L 65.964844 78.984375 L 50.835938 78.984375 Z M 50.835938 78.980469 " fill-opacity="1" fill-rule="nonzero"/></g><g clip-path="url(#677179e34b)"><path fill="#ffffff" d="M 82.953125 78.984375 L 99.261719 78.984375 L 99.261719 109.917969 L 82.953125 109.917969 Z M 82.953125 78.984375 " fill-opacity="1" fill-rule="nonzero"/></g><g clip-path="url(#24cd2c4935)"><path fill="#ffffff" d="M 67.832031 78.984375 L 81.085938 78.984375 L 81.085938 109.917969 L 67.832031 109.917969 Z M 67.832031 78.984375 " fill-opacity="1" fill-rule="nonzero"/></g><path fill="#ffffff" d="M 50.835938 69.441406 L 99.261719 69.441406 L 99.261719 77.117188 L 50.835938 77.117188 Z M 50.835938 69.441406 " fill-opacity="1" fill-rule="nonzero"/><g clip-path="url(#f629562f6e)"><path fill="#ffffff" d="M 76.917969 50.765625 L 86.203125 50.765625 C 86.71875 50.765625 87.136719 50.347656 87.136719 49.832031 L 87.136719 41.949219 C 87.136719 41.429688 86.71875 41.015625 86.203125 41.015625 L 76.628906 41.015625 C 76.304688 40.464844 75.734375 40.082031 75.050781 40.082031 C 74.019531 40.082031 73.179688 40.914062 73.179688 41.949219 L 73.179688 55.867188 L 52.484375 67.574219 L 97.613281 67.574219 L 76.917969 55.867188 Z M 76.917969 50.765625 " fill-opacity="1" fill-rule="nonzero"/></g></svg>