<svg xmlns="http://www.w3.org/2000/svg" xmlns:xlink="http://www.w3.org/1999/xlink" width="200" zoomAndPan="magnify" viewBox="0 0 150 149.999998" height="200" preserveAspectRatio="xMidYMid meet" version="1.0"><defs><clipPath id="1e0e3038f5"><path d="M 0.597656 0.597656 L 149.402344 0.597656 L 149.402344 149.402344 L 0.597656 149.402344 Z M 0.597656 0.597656 " clip-rule="nonzero"/></clipPath><clipPath id="d096dfe524"><path d="M 75 0.597656 C 33.910156 0.597656 0.597656 33.910156 0.597656 75 C 0.597656 116.089844 33.910156 149.402344 75 149.402344 C 116.089844 149.402344 149.402344 116.089844 149.402344 75 C 149.402344 33.910156 116.089844 0.597656 75 0.597656 Z M 75 0.597656 " clip-rule="nonzero"/></clipPath><clipPath id="7d10e19277"><path d="M 0.597656 0.597656 L 149.097656 0.597656 L 149.097656 149.097656 L 0.597656 149.097656 Z M 0.597656 0.597656 " clip-rule="nonzero"/></clipPath><clipPath id="3770b36931"><path d="M 74.996094 0.597656 C 33.90625 0.597656 0.597656 33.90625 0.597656 74.996094 C 0.597656 116.082031 33.90625 149.390625 74.996094 149.390625 C 116.082031 149.390625 149.390625 116.082031 149.390625 74.996094 C 149.390625 33.90625 116.082031 0.597656 74.996094 0.597656 Z M 74.996094 0.597656 " clip-rule="nonzero"/></clipPath><clipPath id="253a114b11"><path d="M 92 39.691406 L 105 39.691406 L 105 58 L 92 58 Z M 92 39.691406 " clip-rule="nonzero"/></clipPath><clipPath id="296c654feb"><path d="M 68 39.691406 L 81 39.691406 L 81 58 L 68 58 Z M 68 39.691406 " clip-rule="nonzero"/></clipPath><clipPath id="e28c28dc27"><path d="M 44 39.691406 L 57 39.691406 L 57 58 L 44 58 Z M 44 39.691406 " clip-rule="nonzero"/></clipPath><clipPath id="c23adb7876"><path d="M 30.261719 77 L 118.761719 77 L 118.761719 110.191406 L 30.261719 110.191406 Z M 30.261719 77 " clip-rule="nonzero"/></clipPath></defs><g clip-path="url(#1e0e3038f5)"><g clip-path="url(#d096dfe524)"><path fill="#957bff" d="M 0.597656 0.597656 L 149.402344 0.597656 L 149.402344 149.402344 L 0.597656 149.402344 Z M 0.597656 0.597656 " fill-opacity="1" fill-rule="nonzero"/></g></g><g clip-path="url(#7d10e19277)"><g clip-path="url(#3770b36931)"><path stroke-linecap="butt" transform="matrix(0.75, 0, 0, 0.75, 0.597827, 0.597834)" fill="none" stroke-linejoin="miter" d="M 99.197694 -0.000236996 C 44.411233 -0.000236996 -0.000227996 44.411224 -0.000227996 99.197685 C -0.000227996 153.978939 44.411233 198.3904 99.197694 198.3904 C 153.978948 198.3904 198.390409 153.978939 198.390409 99.197685 C 198.390409 44.411224 153.978948 -0.000236996 99.197694 -0.000236996 Z M 99.197694 -0.000236996 " stroke="#ffffff" stroke-width="10" stroke-opacity="1" stroke-miterlimit="4"/></g></g><path fill="#ffffff" d="M 113.964844 74.101562 C 113.964844 74.101562 113.964844 63.792969 113.964844 63.792969 C 113.757812 60.402344 110.023438 58.8125 109.539062 58.605469 L 105.871094 56.945312 C 105.25 57.773438 104.488281 58.464844 103.65625 59.019531 C 103.65625 59.019531 108.5 61.164062 108.5 61.164062 C 108.5 61.164062 110.992188 62.203125 111.199219 63.929688 L 111.199219 74.101562 Z M 113.964844 74.101562 " fill-opacity="1" fill-rule="nonzero"/><g clip-path="url(#253a114b11)"><path fill="#ffffff" d="M 104.972656 51.480469 L 104.972656 45.945312 C 104.972656 42.488281 102.203125 39.71875 98.746094 39.71875 C 95.289062 39.71875 92.519531 42.488281 92.519531 45.945312 L 92.519531 51.480469 C 92.519531 54.9375 95.289062 57.707031 98.746094 57.707031 C 102.203125 57.707031 104.972656 54.9375 104.972656 51.480469 Z M 104.972656 51.480469 " fill-opacity="1" fill-rule="nonzero"/></g><g clip-path="url(#296c654feb)"><path fill="#ffffff" d="M 80.761719 51.480469 L 80.761719 45.945312 C 80.761719 42.488281 77.992188 39.71875 74.535156 39.71875 C 71.074219 39.71875 68.308594 42.488281 68.308594 45.945312 L 68.308594 51.480469 C 68.308594 54.9375 71.074219 57.707031 74.535156 57.707031 C 77.992188 57.707031 80.761719 54.9375 80.761719 51.480469 Z M 80.761719 51.480469 " fill-opacity="1" fill-rule="nonzero"/></g><g clip-path="url(#e28c28dc27)"><path fill="#ffffff" d="M 56.546875 51.480469 L 56.546875 45.945312 C 56.546875 42.488281 53.78125 39.71875 50.320312 39.71875 C 46.863281 39.71875 44.097656 42.488281 44.097656 45.945312 L 44.097656 51.480469 C 44.097656 54.9375 46.863281 57.707031 50.320312 57.707031 C 53.78125 57.707031 56.546875 54.9375 56.546875 51.480469 Z M 56.546875 51.480469 " fill-opacity="1" fill-rule="nonzero"/></g><path fill="#ffffff" d="M 39.53125 58.605469 C 39.046875 58.8125 35.378906 60.335938 35.101562 63.792969 C 35.101562 63.792969 35.101562 74.101562 35.101562 74.101562 L 37.871094 74.101562 L 37.871094 63.863281 C 38.007812 62.132812 40.5 61.09375 40.5 61.09375 C 40.5 61.09375 45.339844 58.949219 45.339844 58.949219 C 44.511719 58.398438 43.75 57.707031 43.128906 56.875 Z M 39.53125 58.605469 " fill-opacity="1" fill-rule="nonzero"/><path fill="#ffffff" d="M 62.082031 64 C 62.21875 62.203125 64.710938 61.164062 64.78125 61.164062 C 64.78125 61.164062 69.621094 58.949219 69.621094 58.949219 C 68.792969 58.398438 68.03125 57.707031 67.410156 56.875 L 63.742188 58.535156 C 63.257812 58.742188 59.589844 60.335938 59.316406 63.792969 C 59.316406 63.792969 59.316406 74.238281 59.316406 74.238281 L 62.082031 74.238281 Z M 62.082031 64 " fill-opacity="1" fill-rule="nonzero"/><path fill="#ffffff" d="M 89.753906 74.308594 C 89.753906 74.308594 89.753906 63.863281 89.753906 63.863281 C 89.546875 60.402344 85.808594 58.8125 85.324219 58.605469 L 81.660156 56.945312 C 81.035156 57.773438 80.277344 58.464844 79.445312 59.019531 C 79.445312 59.019531 84.289062 61.164062 84.289062 61.234375 C 84.289062 61.234375 86.777344 62.269531 86.984375 64.070312 L 86.984375 74.308594 Z M 89.753906 74.308594 " fill-opacity="1" fill-rule="nonzero"/><path fill="#ffffff" d="M 93.835938 59.019531 C 93.003906 58.464844 92.242188 57.773438 91.621094 56.945312 L 89.128906 58.050781 C 89.820312 58.605469 90.515625 59.367188 91.066406 60.265625 Z M 93.835938 59.019531 " fill-opacity="1" fill-rule="nonzero"/><path fill="#ffffff" d="M 59.9375 58.050781 L 57.449219 56.945312 C 56.824219 57.773438 56.0625 58.464844 55.234375 59.019531 L 58 60.265625 C 58.554688 59.367188 59.246094 58.605469 59.9375 58.050781 Z M 59.9375 58.050781 " fill-opacity="1" fill-rule="nonzero"/><path fill="#ffffff" d="M 98.746094 60.472656 C 98.054688 60.472656 97.433594 60.402344 96.808594 60.265625 L 95.425781 67.460938 C 95.355469 67.945312 95.496094 68.359375 95.839844 68.703125 L 97.777344 70.640625 C 98.332031 71.195312 99.160156 71.195312 99.714844 70.640625 L 101.652344 68.703125 C 101.996094 68.359375 102.136719 67.945312 102.066406 67.460938 L 100.683594 60.265625 C 100.058594 60.402344 99.4375 60.472656 98.746094 60.472656 Z M 98.746094 60.472656 " fill-opacity="1" fill-rule="nonzero"/><path fill="#ffffff" d="M 74.535156 60.472656 C 73.910156 60.472656 73.289062 60.402344 72.734375 60.265625 L 71.214844 68.082031 C 71.144531 68.566406 71.28125 68.980469 71.628906 69.328125 L 73.566406 71.265625 C 74.117188 71.816406 74.949219 71.816406 75.503906 71.265625 L 77.441406 69.328125 C 77.785156 68.980469 77.921875 68.566406 77.855469 68.082031 L 76.332031 60.265625 C 75.777344 60.402344 75.15625 60.472656 74.535156 60.472656 Z M 74.535156 60.472656 " fill-opacity="1" fill-rule="nonzero"/><path fill="#ffffff" d="M 50.320312 60.472656 C 49.628906 60.472656 49.007812 60.402344 48.386719 60.265625 L 47 67.460938 C 46.933594 67.945312 47.070312 68.359375 47.417969 68.703125 L 49.355469 70.640625 C 49.90625 71.195312 50.738281 71.195312 51.289062 70.640625 L 53.226562 68.703125 C 53.574219 68.359375 53.710938 67.945312 53.640625 67.460938 L 52.257812 60.265625 C 51.636719 60.402344 51.015625 60.472656 50.320312 60.472656 Z M 50.320312 60.472656 " fill-opacity="1" fill-rule="nonzero"/><g clip-path="url(#c23adb7876)"><path fill="#ffffff" d="M 114.65625 77.074219 L 34.410156 77.074219 C 32.128906 77.074219 30.261719 78.941406 30.261719 81.226562 L 30.261719 83.992188 C 30.261719 84.753906 30.882812 85.375 31.644531 85.375 L 38.214844 85.375 L 42.988281 107.167969 C 43.40625 109.035156 45.066406 110.28125 47 110.28125 L 102.136719 110.28125 C 104.074219 110.28125 105.734375 108.964844 106.148438 107.097656 L 110.921875 85.375 L 117.425781 85.375 C 118.183594 85.375 118.808594 84.753906 118.808594 83.992188 L 118.808594 81.226562 C 118.808594 78.941406 116.941406 77.074219 114.65625 77.074219 Z M 56.546875 100.59375 C 55.027344 100.59375 53.78125 99.351562 53.78125 97.828125 C 53.78125 96.304688 55.027344 95.0625 56.546875 95.0625 C 58.070312 95.0625 59.316406 96.304688 59.316406 97.828125 C 59.316406 99.351562 58.070312 100.59375 56.546875 100.59375 Z M 82.835938 101.980469 L 66.234375 101.980469 C 65.472656 101.980469 64.847656 101.355469 64.847656 100.59375 C 64.847656 99.835938 65.472656 99.210938 66.234375 99.210938 L 82.835938 99.210938 C 83.597656 99.210938 84.21875 99.835938 84.21875 100.59375 C 84.21875 101.355469 83.597656 101.980469 82.835938 101.980469 Z M 82.835938 96.445312 L 66.234375 96.445312 C 65.472656 96.445312 64.847656 95.820312 64.847656 95.0625 C 64.847656 94.300781 65.472656 93.675781 66.234375 93.675781 L 82.835938 93.675781 C 83.597656 93.675781 84.21875 94.300781 84.21875 95.0625 C 84.21875 95.820312 83.597656 96.445312 82.835938 96.445312 Z M 92.519531 100.59375 C 91 100.59375 89.753906 99.351562 89.753906 97.828125 C 89.753906 96.304688 91 95.0625 92.519531 95.0625 C 94.042969 95.0625 95.289062 96.304688 95.289062 97.828125 C 95.289062 99.351562 94.042969 100.59375 92.519531 100.59375 Z M 116.039062 82.609375 L 33.027344 82.609375 L 33.027344 81.226562 C 33.027344 80.464844 33.648438 79.84375 34.410156 79.84375 L 114.65625 79.84375 C 115.417969 79.84375 116.039062 80.464844 116.039062 81.226562 Z M 116.039062 82.609375 " fill-opacity="1" fill-rule="nonzero"/></g></svg>