<svg xmlns="http://www.w3.org/2000/svg" xmlns:xlink="http://www.w3.org/1999/xlink" width="200" zoomAndPan="magnify" viewBox="0 0 150 149.999998" height="200" preserveAspectRatio="xMidYMid meet" version="1.0"><defs><clipPath id="bd90ee600b"><path d="M 75 0 C 33.578125 0 0 33.578125 0 75 C 0 116.421875 33.578125 150 75 150 C 116.421875 150 150 116.421875 150 75 C 150 33.578125 116.421875 0 75 0 Z M 75 0 " clip-rule="nonzero"/></clipPath><clipPath id="0f07a93ee9"><path d="M 45.769531 39.785156 L 104.269531 39.785156 L 104.269531 108.785156 L 45.769531 108.785156 Z M 45.769531 39.785156 " clip-rule="nonzero"/></clipPath></defs><g clip-path="url(#bd90ee600b)"><rect x="-15" width="180" fill="#2fff6a" y="-15" height="179.999997" fill-opacity="1"/><path stroke-linecap="butt" transform="matrix(0.75, 0, 0, 0.75, 0.00000125, 0.000002)" fill="none" stroke-linejoin="miter" d="M 100.000004 -0.00000266667 C 44.770834 -0.00000266667 -0.00000166667 44.770833 -0.00000166667 100.000003 C -0.00000166667 155.229173 44.770834 200.000009 100.000004 200.000009 C 155.229174 200.000009 200.00001 155.229173 200.00001 100.000003 C 200.00001 44.770833 155.229174 -0.00000266667 100.000004 -0.00000266667 Z M 100.000004 -0.00000266667 " stroke="#000000" stroke-width="10" stroke-opacity="1" stroke-miterlimit="4"/></g><g clip-path="url(#0f07a93ee9)"><path fill="#100f0d" d="M 103.242188 53.046875 C 102.710938 52.441406 101.960938 52.09375 101.167969 52.070312 C 95.042969 51.910156 87.292969 45.359375 82.167969 42.789062 C 79.003906 41.207031 76.914062 40.164062 75.34375 39.890625 C 75.179688 39.867188 75.023438 39.851562 74.863281 39.851562 C 74.703125 39.851562 74.542969 39.867188 74.382812 39.890625 C 72.8125 40.167969 70.722656 41.210938 67.558594 42.792969 C 62.433594 45.359375 54.683594 51.910156 48.558594 52.070312 C 47.769531 52.09375 47.015625 52.445312 46.480469 53.046875 C 45.941406 53.652344 45.664062 54.453125 45.707031 55.273438 C 47.019531 82.027344 56.617188 98.582031 73.453125 108.207031 C 73.890625 108.453125 74.375 108.582031 74.859375 108.582031 C 75.34375 108.582031 75.828125 108.453125 76.269531 108.207031 C 93.105469 98.582031 102.699219 82.027344 104.015625 55.273438 C 104.058594 54.453125 103.78125 53.652344 103.242188 53.046875 Z M 89.855469 63.570312 L 75.648438 84.535156 C 75.136719 85.289062 74.335938 85.789062 73.542969 85.789062 C 72.75 85.789062 71.863281 85.351562 71.308594 84.792969 L 61.292969 74.777344 C 60.613281 74.09375 60.613281 72.988281 61.292969 72.304688 L 63.765625 69.828125 C 64.449219 69.148438 65.5625 69.148438 66.238281 69.828125 L 72.75 76.339844 L 84.066406 59.636719 C 84.605469 58.84375 85.695312 58.636719 86.496094 59.175781 L 89.390625 61.140625 C 90.1875 61.683594 90.394531 62.773438 89.855469 63.570312 Z M 89.855469 63.570312 " fill-opacity="1" fill-rule="nonzero"/></g></svg>