<svg xmlns="http://www.w3.org/2000/svg" xmlns:xlink="http://www.w3.org/1999/xlink" width="200" zoomAndPan="magnify" viewBox="0 0 150 149.999998" height="200" preserveAspectRatio="xMidYMid meet" version="1.0"><defs><clipPath id="3e5c889c0a"><path d="M 75 0 C 33.578125 0 0 33.578125 0 75 C 0 116.421875 33.578125 150 75 150 C 116.421875 150 150 116.421875 150 75 C 150 33.578125 116.421875 0 75 0 Z M 75 0 " clip-rule="nonzero"/></clipPath><clipPath id="b1c7b51cfb"><path d="M 38.550781 72 L 78 72 L 78 110.285156 L 38.550781 110.285156 Z M 38.550781 72 " clip-rule="nonzero"/></clipPath><clipPath id="ed5fc696f2"><path d="M 58 39.785156 L 83 39.785156 L 83 64 L 58 64 Z M 58 39.785156 " clip-rule="nonzero"/></clipPath><clipPath id="9ea99433b6"><path d="M 86 68 L 110.550781 68 L 110.550781 93 L 86 93 Z M 86 68 " clip-rule="nonzero"/></clipPath></defs><g clip-path="url(#3e5c889c0a)"><rect x="-15" width="180" fill="#f3fd9d" y="-15" height="179.999997" fill-opacity="1"/><path stroke-linecap="butt" transform="matrix(0.75, 0, 0, 0.75, 0.00000125, 0.000002)" fill="none" stroke-linejoin="miter" d="M 100.000004 -0.00000266667 C 44.770834 -0.00000266667 -0.00000166667 44.770833 -0.00000166667 100.000003 C -0.00000166667 155.229173 44.770834 200.000009 100.000004 200.000009 C 155.229174 200.000009 200.00001 155.229173 200.00001 100.000003 C 200.00001 44.770833 155.229174 -0.00000266667 100.000004 -0.00000266667 Z M 100.000004 -0.00000266667 " stroke="#000000" stroke-width="10" stroke-opacity="1" stroke-miterlimit="4"/></g><g clip-path="url(#b1c7b51cfb)"><path fill="#100f0d" d="M 40.414062 100.886719 C 39.320312 101.855469 38.679688 103.195312 38.621094 104.65625 C 38.558594 106.121094 39.082031 107.503906 40.097656 108.5625 C 41.109375 109.617188 42.46875 110.195312 43.929688 110.195312 L 43.933594 110.195312 C 45.394531 110.195312 46.753906 109.617188 47.765625 108.566406 L 77.492188 77.714844 L 72.535156 72.554688 Z M 40.414062 100.886719 " fill-opacity="1" fill-rule="nonzero"/></g><g clip-path="url(#ed5fc696f2)"><path fill="#100f0d" d="M 60.234375 62.183594 C 60.609375 62.578125 61.054688 62.886719 61.539062 63.097656 C 62.023438 63.3125 62.546875 63.425781 63.09375 63.4375 C 64.183594 63.457031 65.21875 63.054688 66.003906 62.300781 L 81.574219 47.351562 C 83.199219 45.792969 83.25 43.207031 81.695312 41.582031 L 81.167969 41.035156 C 80.414062 40.246094 79.394531 39.800781 78.304688 39.78125 C 78.277344 39.78125 78.25 39.777344 78.21875 39.777344 C 77.160156 39.777344 76.160156 40.179688 75.394531 40.917969 L 59.824219 55.863281 C 59.039062 56.621094 58.59375 57.636719 58.570312 58.726562 C 58.546875 59.816406 58.953125 60.851562 59.707031 61.636719 Z M 60.234375 62.183594 " fill-opacity="1" fill-rule="nonzero"/></g><g clip-path="url(#9ea99433b6)"><path fill="#100f0d" d="M 109.347656 70.386719 L 108.820312 69.839844 C 107.265625 68.214844 104.671875 68.164062 103.050781 69.722656 L 87.480469 84.671875 C 86.691406 85.425781 86.246094 86.441406 86.226562 87.53125 C 86.203125 88.621094 86.605469 89.65625 87.363281 90.441406 L 87.886719 90.988281 C 89.445312 92.613281 92.035156 92.667969 93.660156 91.109375 L 109.230469 76.160156 C 110.015625 75.40625 110.460938 74.386719 110.484375 73.296875 C 110.503906 72.207031 110.101562 71.171875 109.347656 70.386719 Z M 109.347656 70.386719 " fill-opacity="1" fill-rule="nonzero"/></g><path fill="#100f0d" d="M 82.746094 48.890625 L 67.335938 63.6875 C 67.222656 63.796875 67.105469 63.898438 66.984375 63.996094 L 73.238281 70.511719 L 73.308594 70.589844 L 79.492188 77.027344 L 85.824219 83.621094 C 85.925781 83.503906 86.035156 83.394531 86.148438 83.285156 L 101.5625 68.488281 Z M 82.746094 48.890625 " fill-opacity="1" fill-rule="nonzero"/></svg>