<svg xmlns="http://www.w3.org/2000/svg" xmlns:xlink="http://www.w3.org/1999/xlink" width="200" zoomAndPan="magnify" viewBox="0 0 150 149.999998" height="200" preserveAspectRatio="xMidYMid meet" version="1.0"><defs><clipPath id="9fe928fcb1"><path d="M 75 0 C 33.578125 0 0 33.578125 0 75 C 0 116.421875 33.578125 150 75 150 C 116.421875 150 150 116.421875 150 75 C 150 33.578125 116.421875 0 75 0 Z M 75 0 " clip-rule="nonzero"/></clipPath><clipPath id="cde8125fc7"><path d="M 32.628906 32.160156 L 118.128906 32.160156 L 118.128906 117.660156 L 32.628906 117.660156 Z M 32.628906 32.160156 " clip-rule="nonzero"/></clipPath></defs><g clip-path="url(#9fe928fcb1)"><rect x="-15" width="180" fill="#fec5fb" y="-15" height="179.999997" fill-opacity="1"/><path stroke-linecap="butt" transform="matrix(0.75, 0, 0, 0.75, 0.00000125, 0.000002)" fill="none" stroke-linejoin="miter" d="M 100.000004 -0.00000266667 C 44.770834 -0.00000266667 -0.00000166667 44.770833 -0.00000166667 100.000003 C -0.00000166667 155.229173 44.770834 200.000009 100.000004 200.000009 C 155.229174 200.000009 200.00001 155.229173 200.00001 100.000003 C 200.00001 44.770833 155.229174 -0.00000266667 100.000004 -0.00000266667 Z M 100.000004 -0.00000266667 " stroke="#000000" stroke-width="10" stroke-opacity="1" stroke-miterlimit="4"/></g><g clip-path="url(#cde8125fc7)"><path fill="#100f0d" d="M 75.46875 82.476562 C 74.941406 82.476562 74.410156 82.414062 73.894531 82.289062 C 71.652344 81.742188 69.878906 80.109375 68.703125 78.175781 C 67.339844 75.9375 66.710938 73.257812 66.710938 70.652344 C 66.710938 67.765625 67.476562 64.882812 69.914062 63.105469 C 71.511719 61.933594 73.515625 61.492188 75.46875 61.492188 C 77.421875 61.492188 79.425781 61.933594 81.023438 63.105469 C 83.457031 64.882812 84.222656 67.769531 84.222656 70.652344 C 84.222656 73.257812 83.59375 75.941406 82.230469 78.175781 C 81.054688 80.109375 79.285156 81.746094 77.039062 82.289062 C 76.523438 82.414062 76 82.476562 75.46875 82.476562 Z M 70.324219 84.917969 L 73.179688 84.632812 L 70.75 83.105469 C 68.855469 81.914062 67.386719 80.109375 66.386719 78.121094 C 65.230469 75.816406 64.675781 73.226562 64.675781 70.652344 C 64.675781 63.882812 68.5625 59.460938 75.46875 59.460938 C 82.375 59.460938 86.257812 63.886719 86.257812 70.652344 C 86.257812 73.230469 85.699219 75.828125 84.539062 78.136719 C 83.539062 80.128906 82.0625 81.933594 80.160156 83.121094 L 77.726562 84.644531 L 80.582031 84.9375 C 83.160156 85.199219 85.714844 85.644531 88.226562 86.269531 C 91.003906 86.957031 93.917969 88.191406 95.902344 90.3125 L 96.738281 91.203125 L 97.429688 90.203125 C 100.535156 85.722656 102.179688 80.445312 102.179688 75 C 102.179688 60.246094 90.222656 48.289062 75.46875 48.289062 C 60.71875 48.289062 48.761719 60.246094 48.761719 75 C 48.761719 80.441406 50.402344 85.714844 53.5 90.1875 L 54.191406 91.1875 L 55.023438 90.304688 C 57.011719 88.203125 59.945312 86.980469 62.699219 86.269531 C 65.203125 85.628906 67.753906 85.175781 70.324219 84.917969 Z M 43.992188 92.878906 L 44.871094 94.417969 L 49.136719 86.554688 L 48.953125 86.121094 C 47.472656 82.582031 46.722656 78.828125 46.722656 74.996094 C 46.722656 59.144531 59.621094 46.253906 75.46875 46.253906 C 91.316406 46.253906 104.210938 59.148438 104.210938 74.996094 C 104.210938 78.5 103.589844 81.953125 102.339844 85.226562 L 102.183594 85.636719 L 106.382812 93.910156 L 107.277344 92.269531 C 109.027344 89.058594 110.273438 85.601562 110.980469 82.015625 C 111.046875 81.671875 111.285156 81.386719 111.609375 81.261719 L 118.304688 78.683594 L 118.304688 71.316406 L 111.609375 68.734375 C 111.285156 68.609375 111.046875 68.324219 110.980469 67.980469 C 110.054688 63.269531 108.210938 58.835938 105.535156 54.847656 C 105.339844 54.558594 105.308594 54.1875 105.449219 53.867188 L 108.367188 47.3125 L 103.152344 42.097656 L 96.601562 45.011719 C 96.28125 45.15625 95.90625 45.125 95.617188 44.929688 C 91.628906 42.253906 87.195312 40.410156 82.484375 39.484375 C 82.140625 39.417969 81.855469 39.179688 81.730469 38.855469 L 79.148438 32.160156 L 71.785156 32.160156 L 69.203125 38.855469 C 69.078125 39.179688 68.792969 39.417969 68.449219 39.484375 C 63.738281 40.410156 59.308594 42.253906 55.324219 44.929688 C 55.035156 45.125 54.664062 45.15625 54.34375 45.015625 L 47.78125 42.097656 L 42.574219 47.3125 L 45.484375 53.875 C 45.628906 54.191406 45.59375 54.5625 45.398438 54.847656 C 42.722656 58.835938 40.878906 63.269531 39.953125 67.980469 C 39.886719 68.324219 39.648438 68.609375 39.324219 68.734375 L 32.628906 71.316406 L 32.628906 78.683594 L 39.316406 81.253906 C 39.644531 81.378906 39.886719 81.664062 39.953125 82.007812 C 40.703125 85.832031 42.0625 89.496094 43.992188 92.878906 Z M 96.164062 117.835938 L 88.335938 117.835938 L 88.335938 100.582031 C 88.335938 100.019531 87.882812 99.566406 87.320312 99.566406 C 86.757812 99.566406 86.304688 100.019531 86.304688 100.582031 L 86.304688 117.835938 L 64.636719 117.835938 L 64.636719 100.582031 C 64.636719 100.019531 64.183594 99.566406 63.621094 99.566406 C 63.058594 99.566406 62.601562 100.019531 62.601562 100.582031 L 62.601562 117.835938 L 54.765625 117.835938 L 54.765625 96.046875 C 54.765625 91.421875 59.347656 89.234375 63.207031 88.242188 C 71.324219 86.15625 79.613281 86.226562 87.734375 88.242188 C 91.597656 89.203125 96.164062 91.445312 96.164062 96.046875 Z M 96.164062 117.835938 " fill-opacity="1" fill-rule="evenodd"/></g></svg>