<svg width="56" height="56" viewBox="0 0 56 56" fill="none" xmlns="http://www.w3.org/2000/svg">
<g clip-path="url(#clip0_209_944)">
<mask id="mask0_209_944" style="mask-type:luminance" maskUnits="userSpaceOnUse" x="3" y="3" width="50" height="49">
<path d="M3.71419 51.5734V3.42659H52.4364V51.5734H3.71419Z" fill="white" stroke="white" stroke-width="0.85319"/>
</mask>
<g mask="url(#mask0_209_944)">
<path d="M27.893 51.0143C41.0715 51.0143 51.7547 40.455 51.7547 27.4295C51.7547 14.404 41.0715 3.84473 27.893 3.84473C14.7145 3.84473 4.03125 14.404 4.03125 27.4295C4.03125 40.455 14.7145 51.0143 27.893 51.0143Z" fill="url(#paint0_linear_209_944)"/>
<path d="M38.3354 36.8271L30.2667 17.5459C29.8116 16.549 29.1351 16.0627 28.2434 16.0627H27.53C26.6382 16.0627 25.9618 16.549 25.5067 17.5459L21.995 25.9465H19.3383C18.5449 25.9525 17.8992 26.5847 17.893 27.3749V27.3932C17.8992 28.1773 18.5449 28.8155 19.3383 28.8216H20.7651L17.4133 36.8271C17.3518 37.0034 17.3149 37.1857 17.3149 37.3741C17.3149 37.824 17.4564 38.1765 17.7085 38.45C17.9607 38.7236 18.3235 38.8573 18.7786 38.8573C19.08 38.8512 19.369 38.7601 19.6089 38.5838C19.8672 38.4075 20.0455 38.1522 20.187 37.8604L23.8769 28.8155H26.4353C27.2286 28.8095 27.8744 28.1773 27.8805 27.3871V27.3506C27.8744 26.5665 27.2286 25.9282 26.4353 25.9222H25.07L27.8867 18.9865L35.5618 37.8544C35.7033 38.1461 35.8816 38.4014 36.1399 38.5777C36.3797 38.754 36.6749 38.8452 36.9701 38.8512C37.4252 38.8512 37.7819 38.7175 38.0402 38.444C38.2985 38.1704 38.4338 37.8179 38.4338 37.3681C38.44 37.1857 38.4092 36.9973 38.3354 36.8271Z" fill="white"/>
</g>
</g>
<rect x="5.5" y="5.5" width="45" height="44" rx="22" stroke="white" stroke-width="3"/>
<defs>
<linearGradient id="paint0_linear_209_944" x1="45.6839" y1="12.6335" x2="10.522" y2="42.5661" gradientUnits="userSpaceOnUse">
<stop stop-color="#B6509E"/>
<stop offset="1" stop-color="#2EBAC6"/>
</linearGradient>
<clipPath id="clip0_209_944">
<rect x="4" y="4" width="48" height="47" rx="23.5" fill="white"/>
</clipPath>
</defs>
</svg>
