<svg width="101" height="29" fill="#fff" xmlns="http://www.w3.org/2000/svg"><path d="m61.677 26.973-9.688-23.5a2.066 2.066 0 0 1-.119-.667c-.018-.48.153-.95.476-1.306a1.668 1.668 0 0 1 1.285-.5c.36.005.71.121 1 .333.305.227.543.53.69.881l9.212 23 9.212-23c.147-.35.385-.654.69-.88.29-.213.64-.33 1-.334a1.668 1.668 0 0 1 1.285.5c.324.357.495.827.476 1.31a2.066 2.066 0 0 1-.119.666l-9.688 23.5a2.606 2.606 0 0 1-2.428 1.81h-.857a2.607 2.607 0 0 1-2.427-1.813zM81.315 28.067a1.723 1.723 0 0 1-.5-1.262V2.999c-.009-.478.17-.94.5-1.286a1.654 1.654 0 0 1 1.262-.523h15.738a1.563 1.563 0 0 1 1.19.5 1.6 1.6 0 0 1 .5 1.19 1.515 1.515 0 0 1-.5 1.167 1.673 1.673 0 0 1-1.19.476H84.386v8.667h12.521a1.562 1.562 0 0 1 1.19.5 1.64 1.64 0 0 1 .5 1.19 1.513 1.513 0 0 1-.5 1.167 1.673 1.673 0 0 1-1.19.476H84.386v8.713h13.929a1.562 1.562 0 0 1 1.19.5 1.6 1.6 0 0 1 .5 1.19 1.514 1.514 0 0 1-.5 1.167 1.672 1.672 0 0 1-1.19.476H82.577a1.555 1.555 0 0 1-1.262-.502zM54.178 26.306l-9.688-23.5A2.606 2.606 0 0 0 42.062 1h-.857a2.606 2.606 0 0 0-2.428 1.809l-4.213 10.237h-3.19a1.748 1.748 0 0 0-1.738 1.738v.024a1.748 1.748 0 0 0 1.738 1.738h1.714l-4.023 9.761c-.076.214-.116.44-.119.667a1.84 1.84 0 0 0 .476 1.309 1.668 1.668 0 0 0 1.285.5c.36-.005.71-.121 1-.333.305-.226.543-.53.69-.881l4.428-11.022h3.047a1.748 1.748 0 0 0 1.738-1.738v-.049a1.748 1.748 0 0 0-1.738-1.738H38.23l3.4-8.451 9.212 23c.147.35.385.654.69.881.29.212.64.328 1 .333a1.668 1.668 0 0 0 1.285-.5 1.84 1.84 0 0 0 .476-1.309 1.577 1.577 0 0 0-.115-.67zM25.233 26.306l-9.688-23.5A2.606 2.606 0 0 0 13.117 1h-.857a2.606 2.606 0 0 0-2.428 1.809L5.619 13.046h-3.19a1.748 1.748 0 0 0-1.738 1.738v.024a1.748 1.748 0 0 0 1.738 1.738h1.714L.12 26.306c-.076.214-.116.44-.119.667-.019.482.152.952.476 1.309a1.668 1.668 0 0 0 1.285.5c.36-.005.71-.121 1-.333.305-.227.543-.53.69-.881L7.88 16.546h3.071a1.748 1.748 0 0 0 1.738-1.738v-.048a1.748 1.748 0 0 0-1.738-1.738H9.308l3.38-8.451 9.212 23c.147.35.385.654.69.881.29.212.64.328 1 .333a1.668 1.668 0 0 0 1.285-.5 1.84 1.84 0 0 0 .476-1.309c.01-.23-.03-.458-.118-.67z"/></svg>