<svg width="56" height="56" viewBox="0 0 56 56" fill="none" xmlns="http://www.w3.org/2000/svg">
<g clip-path="url(#clip0_219_468)">
<rect width="56" height="56" fill="#00D395"/>
<path d="M54.5 28C54.5 42.6355 42.6355 54.5 28 54.5C13.3645 54.5 1.5 42.6355 1.5 28C1.5 13.3645 13.3645 1.5 28 1.5C42.6355 1.5 54.5 13.3645 54.5 28Z" fill="black" stroke="#00825C" stroke-width="3"/>
<g clip-path="url(#clip1_219_468)">
<path d="M27.5 52C41.0313 52 52 41.0313 52 27.5C52 13.9686 41.0313 3 27.5 3C13.9686 3 3 13.9686 3 27.5C3 41.0313 13.9686 52 27.5 52Z" fill="#070A0E"/>
<path fill-rule="evenodd" clip-rule="evenodd" d="M17.1536 35.7147C16.421 35.2664 15.9727 34.4701 15.9727 33.6126V28.8253C15.9727 28.2569 16.4357 27.7963 17.0041 27.7988C17.1854 27.7988 17.3643 27.8478 17.5211 27.9384L28.3231 34.2374C28.9552 34.6049 29.3448 35.2811 29.3448 36.0136V40.9724C29.3472 41.6535 28.796 42.2072 28.1149 42.2072C27.887 42.2072 27.6616 42.1435 27.4681 42.0259L17.1536 35.7147ZM33.255 26.6277C33.8871 26.9952 34.2742 27.6738 34.2766 28.4039V38.4685C34.2766 38.765 34.1174 39.0394 33.8577 39.1839L31.4934 40.5143C31.464 40.5314 31.4322 40.5437 31.3979 40.5535V34.965C31.3979 34.2423 31.0181 33.571 30.3958 33.1986L20.9094 27.5244V21.2156C20.9094 20.6472 21.3725 20.1866 21.9409 20.1891C22.1222 20.1891 22.301 20.2381 22.4578 20.3287L33.255 26.6277ZM37.9835 19.1944C38.618 19.5619 39.0076 20.2405 39.0076 20.9731V35.6731C39.0051 35.9744 38.8385 36.2513 38.5739 36.3958L36.3322 37.6061V27.3725C36.3322 26.6497 35.9524 25.9809 35.335 25.6085L25.6379 19.7922V13.8093C25.6379 13.628 25.6869 13.4491 25.7751 13.2923C26.0618 12.8023 26.6914 12.6357 27.1814 12.9199L37.9835 19.1944Z" fill="#00D395"/>
</g>
</g>
<defs>
<clipPath id="clip0_219_468">
<rect width="56" height="56" fill="white"/>
</clipPath>
<clipPath id="clip1_219_468">
<rect width="49" height="49" fill="white" transform="translate(3 3)"/>
</clipPath>
</defs>
</svg>
