<svg width="32" height="32" viewBox="0 0 32 32" fill="none" xmlns="http://www.w3.org/2000/svg">
<path d="M21.1387 3.66699H12.916C11.0993 3.66805 9.35737 4.39038 8.07302 5.67523C6.78868 6.96008 6.06703 8.7023 6.06667 10.519V21.4817C6.06667 25.2657 9.13334 28.3337 12.9173 28.3337H21.14C24.924 28.3337 27.992 25.267 27.992 21.4817V10.5203C27.992 6.73633 24.9253 3.66833 21.14 3.66833M4.00934 11.2043H8.12001M4.00934 20.7963H8.12001" stroke="white" stroke-width="1.5" stroke-linecap="round" stroke-linejoin="round"/>
<path d="M22.2267 22.3272C22.2267 20.1232 19.7693 18.3325 17.5667 18.3325C15.364 18.3325 12.9067 20.1232 12.9067 22.3258M17.5667 15.1578C17.9778 15.1578 18.3849 15.0768 18.7647 14.9195C19.1446 14.7622 19.4897 14.5316 19.7804 14.2409C20.0711 13.9502 20.3017 13.605 20.459 13.2252C20.6164 12.8454 20.6973 12.4383 20.6973 12.0272C20.6973 11.616 20.6164 11.2089 20.459 10.8291C20.3017 10.4493 20.0711 10.1041 19.7804 9.81344C19.4897 9.52273 19.1446 9.29212 18.7647 9.13479C18.3849 8.97746 17.9778 8.89648 17.5667 8.89648C16.7364 8.89648 15.9401 9.22632 15.353 9.81344C14.7658 10.4005 14.436 11.1968 14.436 12.0272C14.436 12.8575 14.7658 13.6538 15.353 14.2409C15.9401 14.828 16.7364 15.1578 17.5667 15.1578Z" stroke="white" stroke-width="1.5" stroke-linecap="round" stroke-linejoin="round"/>
</svg>
