<svg width="1254" height="563" viewBox="0 0 1254 563" fill="none" xmlns="http://www.w3.org/2000/svg">
<path d="M416.9 277.3C416.9 317.8 447.5 346.3 490.1 346.3C520.4 346.3 544.1 332.2 555.8 309.4H600.2C587.3 356.5 544.1 386.5 490.1 386.5C424.4 386.5 374.9 339.7 374.9 277.3C374.9 214 424.1 167.5 490.1 167.5C544.1 167.5 587 197.5 600.2 244.6H555.8C544.4 221.5 520.7 207.7 490.1 207.7C447.2 207.7 416.9 235.9 416.9 277.3Z" fill="white"/>
<path d="M787.2 388V178H894.6C939.6 178 977.4 207.7 977.4 252.4C977.4 294.7 937.5 326.8 894.6 326.8H829.2V388H787.2ZM935.4 252.4C935.4 231.7 918 216.7 894.6 216.7H829.2V287.5H894.6C917.7 287.5 935.4 272.2 935.4 252.4ZM1036.63 178V388H994.627V178H1036.63Z" fill="white"/>
<path fill-rule="evenodd" clip-rule="evenodd" d="M691.5 358C733.75 358 768 323.75 768 281.5C768 239.25 733.75 205 691.5 205C649.25 205 615 239.25 615 281.5C615 323.75 649.25 358 691.5 358ZM691.5 320C712.763 320 730 302.763 730 281.5C730 260.237 712.763 243 691.5 243C670.237 243 653 260.237 653 281.5C653 302.763 670.237 320 691.5 320Z" fill="white"/>
<rect x="671" y="354" width="40" height="40" rx="20" fill="white"/>
<path fill-rule="evenodd" clip-rule="evenodd" d="M271.601 251.515C276.149 251.515 280.198 254.109 283.899 256.752C286.942 258.926 290.617 260.197 294.574 260.197C305.078 260.197 313.594 251.243 313.594 240.197C313.594 229.151 305.078 220.197 294.574 220.197C290.984 220.197 287.627 221.243 284.763 223.06C280.706 225.633 276.405 228.327 271.601 228.327V228.327C266.797 228.327 262.495 225.633 258.439 223.06C255.574 221.243 252.217 220.197 248.628 220.197C238.124 220.197 229.608 229.151 229.608 240.197C229.608 251.243 238.124 260.197 248.628 260.197C252.585 260.197 256.259 258.926 259.303 256.752C263.004 254.109 267.053 251.515 271.601 251.515V251.515Z" fill="white"/>
<path fill-rule="evenodd" clip-rule="evenodd" d="M153.512 266.247C155.79 270.192 155.569 275.004 155.138 279.539C154.784 283.251 155.523 287.055 157.495 290.471C162.748 299.568 174.761 302.466 184.327 296.943C193.893 291.42 197.39 279.569 192.138 270.472C190.344 267.366 187.762 264.982 184.758 263.41C180.487 261.175 175.984 258.791 173.573 254.616V254.616C171.168 250.451 171.349 245.373 171.542 240.567C171.678 237.187 170.904 233.768 169.115 230.669C163.862 221.572 151.849 218.675 142.283 224.197C132.716 229.72 129.219 241.571 134.472 250.668C136.449 254.091 139.383 256.637 142.784 258.186C146.939 260.078 151.229 262.294 153.512 266.247V266.247Z" fill="white"/>
<path fill-rule="evenodd" clip-rule="evenodd" d="M273.472 308.246C275.75 312.192 275.53 317.004 275.098 321.539C274.745 325.25 275.484 329.055 277.456 332.47C282.709 341.567 294.722 344.464 304.288 338.942C313.854 333.419 317.351 321.568 312.099 312.471C310.305 309.365 307.723 306.981 304.718 305.409C300.447 303.174 295.944 300.79 293.534 296.616V296.616C291.129 292.451 291.31 287.373 291.503 282.567C291.639 279.187 290.865 275.768 289.075 272.668C283.823 263.571 271.81 260.674 262.244 266.196C252.677 271.719 249.18 283.57 254.433 292.667C256.409 296.09 259.343 298.635 262.744 300.184C266.899 302.077 271.189 304.293 273.472 308.246V308.246Z" fill="white"/>
<path d="M312.337 266.199C302.771 271.722 299.274 283.573 304.526 292.67C309.779 301.767 321.792 304.664 331.358 299.141C340.925 293.619 344.422 281.767 339.169 272.671C333.917 263.574 321.904 260.677 312.337 266.199Z" fill="#F3FD9D"/>
<path d="M115.322 264.001C105.755 269.523 102.258 281.375 107.511 290.471C112.763 299.568 124.776 302.466 134.343 296.943C143.909 291.42 147.406 279.569 142.154 270.472C136.901 261.376 124.888 258.478 115.322 264.001Z" fill="#FF8709"/>
<path fill-rule="evenodd" clip-rule="evenodd" d="M221.082 226.228C223.36 222.283 227.638 220.068 231.782 218.173C235.173 216.623 238.098 214.082 240.07 210.666C245.322 201.57 241.825 189.718 232.259 184.196C222.693 178.673 210.68 181.571 205.427 190.667C203.628 193.783 202.855 197.223 203.002 200.62C203.208 205.418 203.393 210.488 200.992 214.647V214.647C198.593 218.803 194.113 221.178 189.859 223.397C186.846 224.969 184.256 227.357 182.458 230.471C177.206 239.567 180.703 251.418 190.269 256.941C199.836 262.464 211.849 259.566 217.101 250.47C219.075 247.052 219.813 243.245 219.458 239.531C219.025 234.993 218.802 230.177 221.082 226.228V226.228Z" fill="white"/>
<path fill-rule="evenodd" clip-rule="evenodd" d="M247.106 348.23C249.384 344.285 253.662 342.07 257.806 340.175C261.196 338.625 264.121 336.084 266.093 332.668C271.346 323.572 267.849 311.72 258.282 306.198C248.716 300.675 236.703 303.573 231.45 312.669C229.651 315.785 228.879 319.225 229.025 322.622C229.232 327.42 229.417 332.491 227.016 336.65V336.65C224.616 340.805 220.137 343.18 215.882 345.4C212.87 346.972 210.28 349.359 208.482 352.473C203.229 361.57 206.726 373.421 216.293 378.944C225.859 384.466 237.872 381.569 243.124 372.472C245.098 369.054 245.836 365.248 245.482 361.534C245.048 356.995 244.826 352.179 247.106 348.23V348.23Z" fill="white"/>
<path d="M166.324 216.942C175.89 222.464 187.903 219.567 193.156 210.47C198.408 201.373 194.911 189.522 185.345 184C175.778 178.477 163.765 181.374 158.513 190.471C153.261 199.568 156.758 211.419 166.324 216.942Z" fill="#2FFF6A"/>
<path d="M265.285 377.141C274.851 382.664 286.864 379.767 292.117 370.67C297.369 361.573 293.872 349.722 284.306 344.199C274.739 338.677 262.726 341.574 257.474 350.671C252.221 359.767 255.719 371.619 265.285 377.141Z" fill="#FF4100"/>
<path fill-rule="evenodd" clip-rule="evenodd" d="M137.655 322.2C137.655 333.246 146.17 342.2 156.675 342.2C160.632 342.2 164.306 340.929 167.35 338.755C171.051 336.112 175.1 333.518 179.648 333.518V333.518C184.195 333.518 188.245 336.112 191.945 338.755C194.989 340.929 198.664 342.2 202.62 342.2C213.125 342.2 221.641 333.246 221.641 322.2C221.641 311.155 213.125 302.2 202.62 302.2C199.031 302.2 195.674 303.246 192.81 305.063C188.753 307.636 184.452 310.33 179.648 310.33V310.33C174.844 310.33 170.542 307.636 166.486 305.062C163.621 303.245 160.264 302.2 156.675 302.2C146.17 302.2 137.655 311.154 137.655 322.2Z" fill="white"/>
<path d="M159.585 362.2C159.585 373.246 168.1 382.2 178.605 382.2C189.109 382.2 197.625 373.246 197.625 362.2C197.625 351.154 189.109 342.2 178.605 342.2C168.1 342.2 159.585 351.154 159.585 362.2Z" fill="#957BFF"/>
<path d="M253.631 200.198C253.631 211.243 262.147 220.197 272.652 220.197C283.156 220.197 291.672 211.243 291.672 200.198C291.672 189.152 283.156 180.198 272.652 180.198C262.147 180.198 253.631 189.152 253.631 200.198Z" fill="#FEC5FB"/>
</svg>
