<svg width="1254" height="563" viewBox="0 0 1254 563" fill="none" xmlns="http://www.w3.org/2000/svg">
<path d="M416.9 277.3C416.9 317.8 447.5 346.3 490.1 346.3C520.4 346.3 544.1 332.2 555.8 309.4H600.2C587.3 356.5 544.1 386.5 490.1 386.5C424.4 386.5 374.9 339.7 374.9 277.3C374.9 214 424.1 167.5 490.1 167.5C544.1 167.5 587 197.5 600.2 244.6H555.8C544.4 221.5 520.7 207.7 490.1 207.7C447.2 207.7 416.9 235.9 416.9 277.3Z" fill="white"/>
<path d="M787.2 388V178H894.6C939.6 178 977.4 207.7 977.4 252.4C977.4 294.7 937.5 326.8 894.6 326.8H829.2V388H787.2ZM935.4 252.4C935.4 231.7 918 216.7 894.6 216.7H829.2V287.5H894.6C917.7 287.5 935.4 272.2 935.4 252.4ZM1036.63 178V388H994.627V178H1036.63Z" fill="white"/>
<path fill-rule="evenodd" clip-rule="evenodd" d="M653.251 350.752C689.84 371.877 736.627 359.34 757.752 322.751C778.877 286.162 766.34 239.375 729.751 218.25C693.162 197.125 646.375 209.662 625.25 246.251C604.125 282.84 616.662 329.627 653.251 350.752ZM672.251 317.843C690.665 328.474 714.211 322.165 724.843 303.751C735.474 285.337 729.165 261.79 710.751 251.159C692.337 240.527 668.79 246.837 658.159 265.251C647.527 283.665 653.837 307.211 672.251 317.843Z" fill="white"/>
<rect x="636" y="339" width="30" height="30" rx="15" transform="rotate(30 636 339)" fill="white"/>
<path fill-rule="evenodd" clip-rule="evenodd" d="M152.079 311.428C147.531 311.428 143.482 308.834 139.781 306.191C136.737 304.017 133.063 302.746 129.106 302.746C118.602 302.746 110.086 311.7 110.086 322.746C110.086 333.792 118.602 342.746 129.106 342.746C132.695 342.746 136.052 341.7 138.917 339.884C142.973 337.31 147.275 334.616 152.079 334.616V334.616C156.883 334.616 161.184 337.31 165.241 339.884C168.105 341.7 171.462 342.746 175.051 342.746C185.556 342.746 194.072 333.792 194.072 322.746C194.072 311.7 185.556 302.746 175.051 302.746C171.095 302.746 167.42 304.017 164.377 306.191C160.676 308.834 156.627 311.428 152.079 311.428V311.428Z" fill="#957BFF"/>
<path fill-rule="evenodd" clip-rule="evenodd" d="M270.168 296.696C267.89 292.751 268.11 287.939 268.542 283.404C268.895 279.692 268.157 275.888 266.184 272.472C260.932 263.375 248.919 260.478 239.353 266C229.786 271.523 226.289 283.374 231.542 292.471C233.335 295.577 235.918 297.961 238.921 299.533C243.193 301.768 247.696 304.152 250.106 308.327V308.327C252.512 312.492 252.331 317.57 252.137 322.376C252.002 325.756 252.775 329.175 254.565 332.274C259.818 341.371 271.831 344.269 281.397 338.746C290.963 333.223 294.46 321.372 289.208 312.275C287.231 308.852 284.297 306.307 280.896 304.757C276.741 302.865 272.451 300.65 270.168 296.696V296.696Z" fill="#F3FD9D"/>
<path fill-rule="evenodd" clip-rule="evenodd" d="M150.207 254.697C147.929 250.751 148.15 245.94 148.581 241.405C148.935 237.693 148.196 233.889 146.224 230.473C140.971 221.376 128.958 218.479 119.392 224.001C109.825 229.524 106.328 241.375 111.581 250.472C113.375 253.578 115.957 255.962 118.961 257.534C123.233 259.77 127.735 262.153 130.146 266.327V266.327C132.551 270.493 132.37 275.57 132.177 280.376C132.04 283.756 132.814 287.176 134.604 290.275C139.857 299.372 151.87 302.269 161.436 296.747C171.002 291.224 174.499 279.373 169.247 270.276C167.27 266.853 164.337 264.308 160.936 262.759C156.781 260.866 152.49 258.651 150.207 254.697V254.697Z" fill="#FF8709"/>
<path d="M111.342 296.744C120.909 291.221 124.406 279.37 119.153 270.273C113.901 261.177 101.888 258.279 92.3214 263.802C82.755 269.324 79.258 281.176 84.5104 290.272C89.7629 299.369 101.776 302.266 111.342 296.744Z" fill="white"/>
<path d="M308.358 298.942C317.924 293.42 321.421 281.568 316.169 272.472C310.916 263.375 298.903 260.478 289.337 266C279.771 271.523 276.274 283.374 281.526 292.471C286.779 301.567 298.792 304.465 308.358 298.942Z" fill="white"/>
<path fill-rule="evenodd" clip-rule="evenodd" d="M202.598 336.715C200.319 340.66 196.041 342.875 191.898 344.77C188.507 346.32 185.582 348.861 183.61 352.277C178.357 361.373 181.854 373.225 191.421 378.747C200.987 384.27 213 381.372 218.253 372.276C220.052 369.16 220.824 365.72 220.678 362.323C220.471 357.525 220.286 352.455 222.688 348.296V348.296C225.087 344.14 229.566 341.766 233.821 339.546C236.833 337.974 239.423 335.586 241.221 332.473C246.474 323.376 242.977 311.525 233.41 306.002C223.844 300.479 211.831 303.377 206.579 312.473C204.605 315.891 203.867 319.698 204.222 323.412C204.655 327.95 204.877 332.766 202.598 336.715V336.715Z" fill="#FF4100"/>
<path fill-rule="evenodd" clip-rule="evenodd" d="M176.574 214.713C174.296 218.658 170.018 220.874 165.874 222.768C162.483 224.318 159.558 226.859 157.586 230.275C152.334 239.371 155.831 251.223 165.397 256.745C174.964 262.268 186.977 259.371 192.229 250.274C194.028 247.158 194.801 243.718 194.655 240.321C194.448 235.523 194.263 230.452 196.664 226.293V226.293C199.064 222.138 203.543 219.763 207.797 217.543C210.81 215.971 213.4 213.584 215.198 210.47C220.45 201.373 216.953 189.522 207.387 184C197.821 178.477 185.808 181.374 180.555 190.471C178.582 193.889 177.843 197.695 178.198 201.409C178.631 205.948 178.854 210.764 176.574 214.713V214.713Z" fill="#2FFF6A"/>
<path d="M257.356 346.002C247.789 340.479 235.776 343.376 230.524 352.473C225.271 361.57 228.769 373.421 238.335 378.944C247.901 384.466 259.914 381.569 265.167 372.472C270.419 363.375 266.922 351.524 257.356 346.002Z" fill="white"/>
<path d="M158.395 185.802C148.828 180.279 136.815 183.177 131.563 192.273C126.311 201.37 129.808 213.221 139.374 218.744C148.94 224.266 160.953 221.369 166.206 212.272C171.458 203.176 167.961 191.324 158.395 185.802Z" fill="white"/>
<path fill-rule="evenodd" clip-rule="evenodd" d="M286.025 240.743C286.025 229.698 277.509 220.743 267.005 220.743C263.048 220.743 259.373 222.014 256.33 224.188C252.629 226.831 248.58 229.425 244.032 229.425V229.425C239.484 229.425 235.435 226.831 231.734 224.188C228.691 222.014 225.016 220.743 221.059 220.743C210.555 220.743 202.039 229.697 202.039 240.743C202.039 251.788 210.555 260.743 221.059 260.743C224.648 260.743 228.005 259.697 230.87 257.881C234.926 255.307 239.228 252.613 244.032 252.613V252.613C248.836 252.613 253.137 255.308 257.194 257.881C260.059 259.698 263.416 260.743 267.005 260.743C277.509 260.743 286.025 251.789 286.025 240.743Z" fill="#FEC5FB"/>
<path d="M264.095 200.743C264.095 189.698 255.58 180.743 245.075 180.743C234.57 180.743 226.055 189.698 226.055 200.743C226.055 211.789 234.57 220.743 245.075 220.743C255.58 220.743 264.095 211.789 264.095 200.743Z" fill="white"/>
<path d="M170.048 362.746C170.048 351.7 161.533 342.746 151.028 342.746C140.523 342.746 132.008 351.7 132.008 362.746C132.008 373.791 140.523 382.745 151.028 382.745C161.533 382.745 170.048 373.791 170.048 362.746Z" fill="white"/>
</svg>
