<svg width="990" height="445" viewBox="0 0 990 445" fill="none" xmlns="http://www.w3.org/2000/svg">
<path d="M403.9 215.3C403.9 255.8 434.5 284.3 477.1 284.3C507.4 284.3 531.1 270.2 542.8 247.4H587.2C574.3 294.5 531.1 324.5 477.1 324.5C411.4 324.5 361.9 277.7 361.9 215.3C361.9 152 411.1 105.5 477.1 105.5C531.1 105.5 574 135.5 587.2 182.6H542.8C531.4 159.5 507.7 145.7 477.1 145.7C434.2 145.7 403.9 173.9 403.9 215.3Z" fill="white"/>
<path d="M607.2 324V114H714.6C759.6 114 797.4 143.7 797.4 188.4C797.4 230.7 757.5 262.8 714.6 262.8H649.2V324H607.2ZM755.4 188.4C755.4 167.7 738 152.7 714.6 152.7H649.2V223.5H714.6C737.7 223.5 755.4 208.2 755.4 188.4ZM856.627 114V324H814.627V114H856.627Z" fill="white"/>
<path fill-rule="evenodd" clip-rule="evenodd" d="M148.079 252.485C143.531 252.485 139.482 249.891 135.781 247.248C132.737 245.074 129.063 243.803 125.106 243.803C114.602 243.803 106.086 252.757 106.086 263.803C106.086 274.849 114.602 283.803 125.106 283.803C128.695 283.803 132.052 282.757 134.917 280.94C138.973 278.367 143.275 275.673 148.079 275.673V275.673C152.883 275.673 157.184 278.367 161.241 280.94C164.105 282.757 167.462 283.803 171.051 283.803C181.556 283.803 190.072 274.849 190.072 263.803C190.072 252.757 181.556 243.803 171.051 243.803C167.095 243.803 163.42 245.074 160.377 247.248C156.676 249.891 152.627 252.485 148.079 252.485V252.485Z" fill="#957BFF"/>
<path fill-rule="evenodd" clip-rule="evenodd" d="M266.168 237.753C263.89 233.808 264.11 228.996 264.542 224.461C264.895 220.749 264.157 216.945 262.184 213.529C256.932 204.432 244.919 201.534 235.353 207.057C225.786 212.58 222.289 224.431 227.542 233.528C229.335 236.634 231.918 239.018 234.921 240.59C239.193 242.825 243.696 245.209 246.106 249.384V249.384C248.512 253.549 248.331 258.627 248.137 263.433C248.002 266.813 248.775 270.232 250.565 273.331C255.818 282.428 267.831 285.325 277.397 279.803C286.963 274.28 290.46 262.429 285.208 253.332C283.231 249.909 280.297 247.363 276.896 245.814C272.741 243.922 268.451 241.706 266.168 237.753V237.753Z" fill="#F3FD9D"/>
<path fill-rule="evenodd" clip-rule="evenodd" d="M146.207 195.754C143.929 191.808 144.15 186.996 144.581 182.461C144.935 178.75 144.196 174.945 142.224 171.53C136.971 162.433 124.958 159.536 115.392 165.058C105.825 170.581 102.328 182.432 107.581 191.529C109.375 194.635 111.957 197.019 114.961 198.591C119.233 200.826 123.735 203.21 126.146 207.384V207.384C128.551 211.549 128.37 216.627 128.177 221.433C128.04 224.813 128.814 228.232 130.604 231.332C135.857 240.429 147.87 243.326 157.436 237.804C167.002 232.281 170.499 220.43 165.247 211.333C163.27 207.91 160.337 205.365 156.936 203.816C152.781 201.923 148.49 199.707 146.207 195.754V195.754Z" fill="#FF8709"/>
<path d="M107.342 237.801C116.909 232.278 120.406 220.427 115.153 211.33C109.901 202.233 97.8877 199.336 88.3214 204.859C78.755 210.381 75.258 222.233 80.5104 231.329C85.7629 240.426 97.7759 243.323 107.342 237.801Z" fill="white"/>
<path d="M304.358 239.999C313.924 234.477 317.421 222.625 312.169 213.529C306.916 204.432 294.903 201.534 285.337 207.057C275.771 212.58 272.274 224.431 277.526 233.528C282.779 242.624 294.792 245.522 304.358 239.999Z" fill="white"/>
<path fill-rule="evenodd" clip-rule="evenodd" d="M198.598 277.772C196.319 281.717 192.041 283.932 187.898 285.827C184.507 287.377 181.582 289.918 179.61 293.334C174.357 302.43 177.854 314.282 187.421 319.804C196.987 325.327 209 322.429 214.253 313.333C216.052 310.217 216.824 306.777 216.678 303.38C216.471 298.582 216.286 293.512 218.688 289.353V289.353C221.087 285.197 225.566 282.822 229.821 280.603C232.833 279.031 235.423 276.643 237.221 273.529C242.474 264.433 238.977 252.582 229.41 247.059C219.844 241.536 207.831 244.434 202.579 253.53C200.605 256.948 199.867 260.755 200.222 264.469C200.655 269.007 200.877 273.823 198.598 277.772V277.772Z" fill="#FF4100"/>
<path fill-rule="evenodd" clip-rule="evenodd" d="M172.574 155.77C170.296 159.715 166.018 161.93 161.874 163.825C158.483 165.375 155.558 167.916 153.586 171.332C148.334 180.428 151.831 192.28 161.397 197.802C170.964 203.325 182.977 200.427 188.229 191.331C190.028 188.215 190.801 184.775 190.655 181.378C190.448 176.58 190.263 171.509 192.664 167.35V167.35C195.064 163.195 199.543 160.82 203.797 158.6C206.81 157.028 209.4 154.641 211.198 151.527C216.45 142.43 212.953 130.579 203.387 125.056C193.821 119.534 181.808 122.431 176.555 131.528C174.582 134.946 173.843 138.752 174.198 142.466C174.631 147.005 174.854 151.821 172.574 155.77V155.77Z" fill="#2FFF6A"/>
<path d="M253.356 287.058C243.789 281.536 231.776 284.433 226.524 293.53C221.271 302.627 224.769 314.478 234.335 320C243.901 325.523 255.914 322.626 261.167 313.529C266.419 304.432 262.922 292.581 253.356 287.058Z" fill="white"/>
<path d="M154.395 126.859C144.828 121.336 132.815 124.233 127.563 133.33C122.311 142.427 125.808 154.278 135.374 159.801C144.94 165.323 156.953 162.426 162.206 153.329C167.458 144.233 163.961 132.381 154.395 126.859Z" fill="white"/>
<path fill-rule="evenodd" clip-rule="evenodd" d="M282.025 181.8C282.025 170.754 273.509 161.8 263.005 161.8C259.048 161.8 255.373 163.071 252.33 165.245C248.629 167.888 244.58 170.482 240.032 170.482V170.482C235.484 170.482 231.435 167.888 227.734 165.245C224.691 163.071 221.016 161.8 217.059 161.8C206.555 161.8 198.039 170.754 198.039 181.8C198.039 192.845 206.555 201.8 217.059 201.8C220.648 201.8 224.005 200.754 226.87 198.937C230.926 196.364 235.228 193.67 240.032 193.67V193.67C244.836 193.67 249.137 196.364 253.194 198.938C256.059 200.755 259.416 201.8 263.005 201.8C273.509 201.8 282.025 192.846 282.025 181.8Z" fill="#FEC5FB"/>
<path d="M260.095 141.8C260.095 130.754 251.58 121.8 241.075 121.8C230.57 121.8 222.055 130.754 222.055 141.8C222.055 152.846 230.57 161.8 241.075 161.8C251.58 161.8 260.095 152.846 260.095 141.8Z" fill="white"/>
<path d="M166.048 303.802C166.048 292.757 157.533 283.803 147.028 283.803C136.523 283.803 128.008 292.757 128.008 303.802C128.008 314.848 136.523 323.802 147.028 323.802C157.533 323.802 166.048 314.848 166.048 303.802Z" fill="white"/>
</svg>
