<?xml version="1.0" encoding="UTF-8"?>
<svg xmlns="http://www.w3.org/2000/svg" xmlns:xlink="http://www.w3.org/1999/xlink" width="990px" height="445px" viewBox="0 0 743 334" version="1.1">
<g id="surface1">
<path style=" stroke:none;fill-rule:nonzero;fill:rgb(100%,100%,100%);fill-opacity:1;" d="M 303.128906 161.597656 C 303.128906 191.992188 326.09375 213.382812 358.066406 213.382812 C 380.804688 213.382812 398.59375 202.800781 407.375 185.6875 L 440.695312 185.6875 C 431.015625 221.039062 398.59375 243.558594 358.066406 243.558594 C 308.757812 243.558594 271.609375 208.429688 271.609375 161.597656 C 271.609375 114.085938 308.53125 79.183594 358.066406 79.183594 C 398.59375 79.183594 430.789062 101.699219 440.695312 137.050781 L 407.375 137.050781 C 398.820312 119.714844 381.03125 109.355469 358.066406 109.355469 C 325.871094 109.355469 303.128906 130.523438 303.128906 161.597656 Z M 303.128906 161.597656 "/>
<path style=" stroke:none;fill-rule:nonzero;fill:rgb(100%,100%,100%);fill-opacity:1;" d="M 455.707031 243.183594 L 455.707031 85.5625 L 536.3125 85.5625 C 570.082031 85.5625 598.453125 107.855469 598.453125 141.40625 C 598.453125 173.15625 568.507812 197.246094 536.3125 197.246094 L 487.226562 197.246094 L 487.226562 243.183594 Z M 566.929688 141.40625 C 566.929688 125.871094 553.871094 114.609375 536.3125 114.609375 L 487.226562 114.609375 L 487.226562 167.75 L 536.3125 167.75 C 553.648438 167.75 566.929688 156.265625 566.929688 141.40625 Z M 642.902344 85.5625 L 642.902344 243.183594 L 611.382812 243.183594 L 611.382812 85.5625 Z M 642.902344 85.5625 "/>
<path style=" stroke:none;fill-rule:evenodd;fill:rgb(58.431375%,48.235294%,100%);fill-opacity:1;" d="M 111.132812 189.503906 C 107.722656 189.503906 104.683594 187.558594 101.90625 185.574219 C 99.621094 183.941406 96.863281 182.988281 93.894531 182.988281 C 86.007812 182.988281 79.617188 189.710938 79.617188 198 C 79.617188 206.292969 86.007812 213.011719 93.894531 213.011719 C 96.585938 213.011719 99.105469 212.226562 101.257812 210.863281 C 104.300781 208.929688 107.527344 206.910156 111.132812 206.910156 C 114.738281 206.910156 117.96875 208.929688 121.011719 210.863281 C 123.160156 212.226562 125.679688 213.011719 128.375 213.011719 C 136.257812 213.011719 142.648438 206.292969 142.648438 198 C 142.648438 189.710938 136.257812 182.988281 128.375 182.988281 C 125.40625 182.988281 122.648438 183.941406 120.363281 185.574219 C 117.585938 187.558594 114.546875 189.503906 111.132812 189.503906 Z M 111.132812 189.503906 "/>
<path style=" stroke:none;fill-rule:evenodd;fill:rgb(95.294118%,99.215686%,61.56863%);fill-opacity:1;" d="M 199.761719 178.449219 C 198.050781 175.488281 198.214844 171.875 198.539062 168.472656 C 198.804688 165.6875 198.25 162.832031 196.769531 160.265625 C 192.828125 153.4375 183.8125 151.265625 176.632812 155.410156 C 169.453125 159.554688 166.828125 168.449219 170.769531 175.277344 C 172.117188 177.609375 174.054688 179.398438 176.308594 180.578125 C 179.515625 182.253906 182.894531 184.042969 184.703125 187.179688 C 186.507812 190.304688 186.375 194.117188 186.226562 197.722656 C 186.125 200.257812 186.707031 202.824219 188.050781 205.152344 C 191.992188 211.980469 201.007812 214.152344 208.1875 210.007812 C 215.367188 205.863281 217.992188 196.96875 214.050781 190.140625 C 212.566406 187.570312 210.363281 185.660156 207.8125 184.5 C 204.695312 183.078125 201.472656 181.414062 199.761719 178.449219 Z M 199.761719 178.449219 "/>
<path style=" stroke:none;fill-rule:evenodd;fill:rgb(100%,52.941179%,3.529412%);fill-opacity:1;" d="M 109.730469 146.925781 C 108.019531 143.964844 108.183594 140.351562 108.507812 136.949219 C 108.773438 134.164062 108.21875 131.308594 106.738281 128.742188 C 102.796875 121.914062 93.78125 119.742188 86.601562 123.886719 C 79.421875 128.03125 76.796875 136.925781 80.738281 143.753906 C 82.085938 146.085938 84.023438 147.875 86.277344 149.054688 C 89.484375 150.730469 92.863281 152.523438 94.671875 155.65625 C 96.476562 158.78125 96.34375 162.59375 96.199219 166.199219 C 96.09375 168.734375 96.675781 171.300781 98.019531 173.628906 C 101.960938 180.457031 110.976562 182.632812 118.15625 178.488281 C 125.335938 174.339844 127.960938 165.445312 124.019531 158.617188 C 122.535156 156.050781 120.332031 154.140625 117.78125 152.976562 C 114.664062 151.554688 111.441406 149.890625 109.730469 146.925781 Z M 109.730469 146.925781 "/>
<path style=" stroke:none;fill-rule:nonzero;fill:rgb(100%,100%,100%);fill-opacity:1;" d="M 80.5625 178.484375 C 87.742188 174.339844 90.367188 165.445312 86.421875 158.617188 C 82.480469 151.789062 73.464844 149.613281 66.285156 153.757812 C 59.105469 157.902344 56.480469 166.800781 60.421875 173.625 C 64.367188 180.453125 73.382812 182.628906 80.5625 178.484375 Z M 80.5625 178.484375 "/>
<path style=" stroke:none;fill-rule:nonzero;fill:rgb(100%,100%,100%);fill-opacity:1;" d="M 228.421875 180.132812 C 235.601562 175.988281 238.226562 167.09375 234.285156 160.265625 C 230.34375 153.4375 221.328125 151.265625 214.148438 155.410156 C 206.96875 159.554688 204.34375 168.449219 208.285156 175.277344 C 212.226562 182.105469 221.242188 184.28125 228.421875 180.132812 Z M 228.421875 180.132812 "/>
<path style=" stroke:none;fill-rule:evenodd;fill:rgb(100%,25.490198%,0%);fill-opacity:1;" d="M 149.046875 208.484375 C 147.339844 211.445312 144.128906 213.109375 141.019531 214.53125 C 138.472656 215.695312 136.277344 217.601562 134.796875 220.164062 C 130.855469 226.992188 133.480469 235.886719 140.660156 240.03125 C 147.839844 244.179688 156.855469 242.003906 160.796875 235.175781 C 162.148438 232.835938 162.726562 230.253906 162.617188 227.707031 C 162.460938 224.105469 162.324219 220.300781 164.125 217.175781 C 165.925781 214.058594 169.289062 212.273438 172.480469 210.609375 C 174.742188 209.429688 176.6875 207.636719 178.035156 205.300781 C 181.976562 198.472656 179.351562 189.578125 172.171875 185.433594 C 164.992188 181.289062 155.976562 183.460938 152.035156 190.289062 C 150.554688 192.855469 150 195.710938 150.269531 198.5 C 150.59375 201.90625 150.757812 205.519531 149.046875 208.484375 Z M 149.046875 208.484375 "/>
<path style=" stroke:none;fill-rule:evenodd;fill:rgb(18.431373%,100%,41.568628%);fill-opacity:1;" d="M 129.519531 116.914062 C 127.808594 119.875 124.597656 121.539062 121.488281 122.960938 C 118.941406 124.125 116.746094 126.03125 115.265625 128.59375 C 111.324219 135.421875 113.949219 144.316406 121.128906 148.460938 C 128.308594 152.609375 137.324219 150.433594 141.265625 143.605469 C 142.617188 141.265625 143.195312 138.683594 143.085938 136.136719 C 142.933594 132.535156 142.792969 128.726562 144.59375 125.605469 C 146.398438 122.488281 149.757812 120.707031 152.949219 119.039062 C 155.210938 117.859375 157.15625 116.066406 158.503906 113.730469 C 162.445312 106.902344 159.824219 98.007812 152.644531 93.863281 C 145.464844 89.71875 136.449219 91.890625 132.503906 98.71875 C 131.023438 101.285156 130.46875 104.140625 130.738281 106.929688 C 131.0625 110.335938 131.230469 113.949219 129.519531 116.914062 Z M 129.519531 116.914062 "/>
<path style=" stroke:none;fill-rule:nonzero;fill:rgb(100%,100%,100%);fill-opacity:1;" d="M 190.144531 215.453125 C 182.964844 211.308594 173.949219 213.484375 170.007812 220.3125 C 166.066406 227.140625 168.691406 236.035156 175.871094 240.179688 C 183.050781 244.324219 192.066406 242.152344 196.007812 235.324219 C 199.949219 228.496094 197.324219 219.601562 190.144531 215.453125 Z M 190.144531 215.453125 "/>
<path style=" stroke:none;fill-rule:nonzero;fill:rgb(100%,100%,100%);fill-opacity:1;" d="M 115.875 95.214844 C 108.695312 91.070312 99.679688 93.246094 95.738281 100.074219 C 91.796875 106.898438 94.417969 115.796875 101.597656 119.941406 C 108.777344 124.085938 117.792969 121.910156 121.738281 115.082031 C 125.679688 108.253906 123.054688 99.359375 115.875 95.214844 Z M 115.875 95.214844 "/>
<path style=" stroke:none;fill-rule:evenodd;fill:rgb(99.607843%,77.254903%,98.431373%);fill-opacity:1;" d="M 211.660156 136.453125 C 211.660156 128.160156 205.269531 121.441406 197.386719 121.441406 C 194.417969 121.441406 191.660156 122.394531 189.375 124.027344 C 186.597656 126.011719 183.558594 127.957031 180.144531 127.957031 C 176.730469 127.957031 173.691406 126.011719 170.914062 124.027344 C 168.632812 122.394531 165.875 121.441406 162.902344 121.441406 C 155.019531 121.441406 148.628906 128.160156 148.628906 136.453125 C 148.628906 144.742188 155.019531 151.464844 162.902344 151.464844 C 165.597656 151.464844 168.117188 150.679688 170.265625 149.316406 C 173.3125 147.382812 176.539062 145.359375 180.144531 145.359375 C 183.75 145.359375 186.980469 147.382812 190.023438 149.316406 C 192.171875 150.679688 194.691406 151.464844 197.386719 151.464844 C 205.269531 151.464844 211.660156 144.742188 211.660156 136.453125 Z M 211.660156 136.453125 "/>
<path style=" stroke:none;fill-rule:nonzero;fill:rgb(100%,100%,100%);fill-opacity:1;" d="M 195.203125 106.429688 C 195.203125 98.140625 188.8125 91.417969 180.929688 91.417969 C 173.042969 91.417969 166.652344 98.140625 166.652344 106.429688 C 166.652344 114.71875 173.042969 121.441406 180.929688 121.441406 C 188.8125 121.441406 195.203125 114.71875 195.203125 106.429688 Z M 195.203125 106.429688 "/>
<path style=" stroke:none;fill-rule:nonzero;fill:rgb(100%,100%,100%);fill-opacity:1;" d="M 124.621094 228.023438 C 124.621094 219.730469 118.230469 213.011719 110.34375 213.011719 C 102.460938 213.011719 96.070312 219.730469 96.070312 228.023438 C 96.070312 236.3125 102.460938 243.035156 110.34375 243.035156 C 118.230469 243.035156 124.621094 236.3125 124.621094 228.023438 Z M 124.621094 228.023438 "/>
</g>
</svg>
