<svg width="138" height="148" viewBox="0 0 138 148" fill="none" xmlns="http://www.w3.org/2000/svg">
<mask id="mask0_380_337" style="mask-type:alpha" maskUnits="userSpaceOnUse" x="0" y="0" width="138" height="148">
<path d="M137.375 68.6875C134.717 68.6875 132.188 68.1764 129.786 67.1543C127.384 66.1322 125.314 64.7267 123.576 62.938C121.839 61.1493 120.433 59.0794 119.36 56.7285C118.287 54.3776 117.75 51.8223 117.75 49.0625C117.75 45.4339 117.827 41.8053 117.98 38.1768C118.133 34.5482 118.031 31.0218 117.673 27.5977C117.316 24.1735 116.498 20.826 115.22 17.5552C113.943 14.2843 111.924 11.2946 109.164 8.58594C106.404 5.82617 103.21 3.70524 99.5815 2.22314C95.953 0.741048 92.1966 0 88.3125 0V9.8125C91.0212 9.8125 93.5509 10.3236 95.9019 11.3457C98.2528 12.3678 100.323 13.7733 102.111 15.562C103.9 17.3507 105.306 19.4461 106.328 21.8481C107.35 24.2502 107.886 26.78 107.938 29.4375C107.938 32.2995 107.886 35.1104 107.784 37.8701C107.682 40.6299 107.656 43.3641 107.708 46.0728C107.759 48.7814 108.014 51.3879 108.474 53.8921C108.934 56.3963 109.624 58.8239 110.544 61.1748C111.464 63.5257 112.793 65.7233 114.53 67.7676C116.268 69.8119 118.44 71.7539 121.046 73.5938C118.389 75.3825 116.217 77.3246 114.53 79.4199C112.844 81.5153 111.515 83.7129 110.544 86.0127C109.573 88.3125 108.883 90.7145 108.474 93.2188C108.065 95.723 107.835 98.3294 107.784 101.038C107.733 103.747 107.733 106.481 107.784 109.241C107.835 112.001 107.886 114.837 107.938 117.75C107.938 120.459 107.426 122.988 106.404 125.339C105.382 127.69 103.977 129.76 102.188 131.549C100.399 133.338 98.3294 134.743 95.9785 135.765C93.6276 136.787 91.0723 137.324 88.3125 137.375V147.188C92.1966 147.188 95.953 146.446 99.5815 144.964C103.21 143.482 106.404 141.361 109.164 138.602C111.924 135.842 113.917 132.852 115.144 129.632C116.37 126.413 117.188 123.091 117.597 119.667C118.006 116.242 118.133 112.69 117.98 109.011C117.827 105.331 117.75 101.702 117.75 98.125C117.75 95.4675 118.261 92.9377 119.283 90.5357C120.305 88.1336 121.711 86.0638 123.5 84.3262C125.288 82.5886 127.384 81.1831 129.786 80.1099C132.188 79.0366 134.717 78.5 137.375 78.5V68.6875ZM49.0625 0C45.1784 0 41.422 0.741048 37.7935 2.22314C34.1649 3.70524 30.9707 5.82617 28.2109 8.58594C25.4512 11.3457 23.458 14.3355 22.2314 17.5552C21.0049 20.7749 20.1872 24.0968 19.7783 27.521C19.3695 30.9452 19.2417 34.4971 19.395 38.1768C19.5483 41.8564 19.625 45.485 19.625 49.0625C19.625 51.7712 19.1139 54.3009 18.0918 56.6519C17.0697 59.0028 15.6642 61.0726 13.8755 62.8613C12.0868 64.6501 10.0169 66.0555 7.66602 67.0776C5.31511 68.0998 2.75977 68.6364 0 68.6875V78.5C2.70866 78.5 5.23845 79.0111 7.58936 80.0332C9.94027 81.0554 12.0101 82.4608 13.7988 84.2495C15.5876 86.0383 16.993 88.1336 18.0151 90.5357C19.0373 92.9377 19.5739 95.4675 19.625 98.125C19.625 101.754 19.5483 105.382 19.395 109.011C19.2417 112.639 19.3439 116.166 19.7017 119.59C20.0594 123.014 20.8771 126.362 22.1548 129.632C23.4325 132.903 25.4512 135.893 28.2109 138.602C30.9707 141.361 34.1649 143.482 37.7935 144.964C41.422 146.446 45.1784 147.188 49.0625 147.188V137.375C46.4049 137.375 43.8752 136.864 41.4731 135.842C39.0711 134.82 37.0013 133.414 35.2637 131.626C33.526 129.837 32.1206 127.767 31.0474 125.416C29.9741 123.065 29.4375 120.51 29.4375 117.75C29.4375 114.888 29.4886 112.077 29.5908 109.317C29.693 106.558 29.7186 103.823 29.6675 101.115C29.6164 98.4061 29.3608 95.7997 28.9009 93.2954C28.4409 90.7912 27.751 88.3636 26.8311 86.0127C25.9111 83.6618 24.5824 81.4642 22.8447 79.4199C21.1071 77.3757 18.9351 75.4336 16.3286 73.5938C18.9862 71.805 21.1582 69.863 22.8447 67.7676C24.5312 65.6722 25.86 63.4746 26.8311 61.1748C27.8021 58.875 28.492 56.473 28.9009 53.9688C29.3097 51.4645 29.5397 48.8581 29.5908 46.1494C29.6419 43.4408 29.6419 40.7065 29.5908 37.9468C29.5397 35.187 29.4886 32.3506 29.4375 29.4375C29.4375 26.78 29.9486 24.2502 30.9707 21.8481C31.9928 19.4461 33.3983 17.3763 35.187 15.6387C36.9757 13.901 39.0711 12.4956 41.4731 11.4224C43.8752 10.3491 46.4049 9.8125 49.0625 9.8125V0Z" fill="black"/>
</mask>
<g mask="url(#mask0_380_337)">
<rect width="83.5" height="162.5" transform="matrix(-1 0 0 1 155.188 -10)" fill="#B8F57F"/>
</g>
</svg>
