<svg width="138" height="148" viewBox="0 0 138 148" fill="none" xmlns="http://www.w3.org/2000/svg">
<mask id="mask0_380_334" style="mask-type:alpha" maskUnits="userSpaceOnUse" x="0" y="0" width="138" height="148">
<path d="M0 68.6875C2.65755 68.6875 5.18734 68.1764 7.58936 67.1543C9.99137 66.1322 12.0612 64.7267 13.7988 62.938C15.5365 61.1493 16.9419 59.0794 18.0151 56.7285C19.0884 54.3776 19.625 51.8223 19.625 49.0625C19.625 45.4339 19.5483 41.8053 19.395 38.1768C19.2417 34.5482 19.3439 31.0218 19.7017 27.5977C20.0594 24.1735 20.8771 20.826 22.1548 17.5552C23.4325 14.2843 25.4512 11.2946 28.2109 8.58594C30.9707 5.82617 34.1649 3.70524 37.7935 2.22314C41.422 0.741048 45.1784 0 49.0625 0V9.8125C46.3538 9.8125 43.8241 10.3236 41.4731 11.3457C39.1222 12.3678 37.0524 13.7733 35.2637 15.562C33.4749 17.3507 32.0695 19.4461 31.0474 21.8481C30.0252 24.2502 29.4886 26.78 29.4375 29.4375C29.4375 32.2995 29.4886 35.1104 29.5908 37.8701C29.693 40.6299 29.7186 43.3641 29.6675 46.0728C29.6164 48.7814 29.3608 51.3879 28.9009 53.8921C28.4409 56.3963 27.751 58.8239 26.8311 61.1748C25.9111 63.5257 24.5824 65.7233 22.8447 67.7676C21.1071 69.8119 18.9351 71.7539 16.3286 73.5938C18.9862 75.3825 21.1582 77.3246 22.8447 79.4199C24.5312 81.5153 25.86 83.7129 26.8311 86.0127C27.8021 88.3125 28.492 90.7145 28.9009 93.2188C29.3097 95.723 29.5397 98.3294 29.5908 101.038C29.6419 103.747 29.6419 106.481 29.5908 109.241C29.5397 112.001 29.4886 114.837 29.4375 117.75C29.4375 120.459 29.9486 122.988 30.9707 125.339C31.9928 127.69 33.3983 129.76 35.187 131.549C36.9757 133.338 39.0456 134.743 41.3965 135.765C43.7474 136.787 46.3027 137.324 49.0625 137.375V147.188C45.1784 147.188 41.422 146.446 37.7935 144.964C34.1649 143.482 30.9707 141.361 28.2109 138.602C25.4512 135.842 23.458 132.852 22.2314 129.632C21.0049 126.413 20.1872 123.091 19.7783 119.667C19.3695 116.242 19.2417 112.69 19.395 109.011C19.5483 105.331 19.625 101.702 19.625 98.125C19.625 95.4675 19.1139 92.9377 18.0918 90.5357C17.0697 88.1336 15.6642 86.0638 13.8755 84.3262C12.0868 82.5886 9.99137 81.1831 7.58936 80.1099C5.18734 79.0366 2.65755 78.5 0 78.5V68.6875ZM88.3125 0C92.1966 0 95.953 0.741048 99.5815 2.22314C103.21 3.70524 106.404 5.82617 109.164 8.58594C111.924 11.3457 113.917 14.3355 115.144 17.5552C116.37 20.7749 117.188 24.0968 117.597 27.521C118.006 30.9452 118.133 34.4971 117.98 38.1768C117.827 41.8564 117.75 45.485 117.75 49.0625C117.75 51.7712 118.261 54.3009 119.283 56.6519C120.305 59.0028 121.711 61.0726 123.5 62.8613C125.288 64.6501 127.358 66.0555 129.709 67.0776C132.06 68.0998 134.615 68.6364 137.375 68.6875V78.5C134.666 78.5 132.137 79.0111 129.786 80.0332C127.435 81.0554 125.365 82.4608 123.576 84.2495C121.787 86.0383 120.382 88.1336 119.36 90.5357C118.338 92.9377 117.801 95.4675 117.75 98.125C117.75 101.754 117.827 105.382 117.98 109.011C118.133 112.639 118.031 116.166 117.673 119.59C117.316 123.014 116.498 126.362 115.22 129.632C113.943 132.903 111.924 135.893 109.164 138.602C106.404 141.361 103.21 143.482 99.5815 144.964C95.953 146.446 92.1966 147.188 88.3125 147.188V137.375C90.9701 137.375 93.4998 136.864 95.9019 135.842C98.3039 134.82 100.374 133.414 102.111 131.626C103.849 129.837 105.254 127.767 106.328 125.416C107.401 123.065 107.938 120.51 107.938 117.75C107.938 114.888 107.886 112.077 107.784 109.317C107.682 106.558 107.656 103.823 107.708 101.115C107.759 98.4061 108.014 95.7997 108.474 93.2954C108.934 90.7912 109.624 88.3636 110.544 86.0127C111.464 83.6618 112.793 81.4642 114.53 79.4199C116.268 77.3757 118.44 75.4336 121.046 73.5938C118.389 71.805 116.217 69.863 114.53 67.7676C112.844 65.6722 111.515 63.4746 110.544 61.1748C109.573 58.875 108.883 56.473 108.474 53.9688C108.065 51.4645 107.835 48.8581 107.784 46.1494C107.733 43.4408 107.733 40.7065 107.784 37.9468C107.835 35.187 107.886 32.3506 107.938 29.4375C107.938 26.78 107.426 24.2502 106.404 21.8481C105.382 19.4461 103.977 17.3763 102.188 15.6387C100.399 13.901 98.3039 12.4956 95.9019 11.4224C93.4998 10.3491 90.9701 9.8125 88.3125 9.8125V0Z" fill="black"/>
</mask>
<g mask="url(#mask0_380_334)">
<rect x="-17.8125" y="-10" width="83.5" height="162.5" fill="#B8F57F"/>
</g>
</svg>
