<svg width="56" height="56" viewBox="0 0 56 56" fill="none" xmlns="http://www.w3.org/2000/svg">
<g clip-path="url(#clip0_209_937)">
<path d="M54.5 28C54.5 42.6355 42.6355 54.5 28 54.5C13.3645 54.5 1.5 42.6355 1.5 28C1.5 13.3645 13.3645 1.5 28 1.5C42.6355 1.5 54.5 13.3645 54.5 28Z" fill="#FF0420" stroke="white" stroke-width="3"/>
<path d="M19.8351 35.4369C18.1663 35.4369 16.7999 35.0449 15.7359 34.2609C14.6831 33.4657 14.1567 32.3233 14.1567 30.8561C14.1567 30.5425 14.1903 30.1729 14.2575 29.7249C14.4367 28.7169 14.6943 27.5073 15.0303 26.0849C15.9823 22.2321 18.4463 20.3057 22.4111 20.3057C23.4863 20.3057 24.4607 20.4849 25.3119 20.8545C26.1631 21.2017 26.8351 21.7393 27.3279 22.4561C27.8207 23.1617 28.0671 24.0017 28.0671 24.9761C28.0671 25.2673 28.0335 25.6369 27.9663 26.0849C27.7535 27.3281 27.5071 28.5489 27.2047 29.7249C26.7119 31.6401 25.8719 33.0849 24.6623 34.0369C23.4639 34.9777 21.8511 35.4369 19.8351 35.4369ZM20.1375 32.4129C20.9215 32.4129 21.5823 32.1777 22.1311 31.7185C22.6911 31.2593 23.0943 30.5537 23.3295 29.5905C23.6543 28.2689 23.9007 27.1265 24.0687 26.1409C24.1247 25.8497 24.1583 25.5473 24.1583 25.2337C24.1583 23.9569 23.4975 23.3185 22.1647 23.3185C21.3807 23.3185 20.7087 23.5537 20.1487 24.0129C19.5999 24.4721 19.2079 25.1777 18.9727 26.1409C18.7151 27.0817 18.4687 28.2241 18.2111 29.5905C18.1551 29.8705 18.1215 30.1617 18.1215 30.4753C18.1103 31.7745 18.7935 32.4129 20.1375 32.4129Z" fill="white"/>
<path d="M29.0414 35.2351C28.8846 35.2351 28.7726 35.1903 28.683 35.0895C28.6158 34.9775 28.5934 34.8543 28.6158 34.7087L31.5166 21.0447C31.539 20.8879 31.6174 20.7647 31.7518 20.6639C31.875 20.5631 32.0094 20.5183 32.155 20.5183H37.7438C39.3006 20.5183 40.5438 20.8431 41.4846 21.4815C42.4366 22.1311 42.9182 23.0607 42.9182 24.2815C42.9182 24.6287 42.8734 24.9983 42.795 25.3791C42.4478 26.9919 41.7422 28.1791 40.667 28.9519C39.6142 29.7247 38.1694 30.1055 36.3326 30.1055H33.499L32.5358 34.7087C32.5022 34.8655 32.435 34.9887 32.3006 35.0895C32.1774 35.1903 32.043 35.2351 31.8974 35.2351H29.0414ZM36.4782 27.2047C37.0718 27.2047 37.5758 27.0479 38.0126 26.7231C38.4606 26.3983 38.7518 25.9391 38.8974 25.3343C38.9422 25.0991 38.9646 24.8863 38.9646 24.7071C38.9646 24.3039 38.8414 23.9903 38.6062 23.7775C38.371 23.5535 37.9566 23.4415 37.3854 23.4415H34.8654L34.0702 27.2047H36.4782Z" fill="white"/>
</g>
<defs>
<clipPath id="clip0_209_937">
<rect width="56" height="56" fill="white"/>
</clipPath>
</defs>
</svg>
