
<svg width="192" height="27" fill="none" xmlns="http://www.w3.org/2000/svg"><path d="M10.016 26.36c-1.512 0-2.916-.204-4.212-.612-1.296-.408-2.388-1.02-3.276-1.836-.888-.816-1.524-1.836-1.908-3.06C.26 19.628.212 18.2.476 16.568c.192-1.032.396-2.064.612-3.096.24-1.032.48-2.076.72-3.132.792-3.24 2.22-5.7 4.284-7.38C8.156 1.28 10.94.44 14.444.44c1.512 0 2.904.216 4.176.648 1.296.408 2.388 1.032 3.276 1.872a6.692 6.692 0 0 1 1.908 3.096c.384 1.224.432 2.652.144 4.284a45.116 45.116 0 0 1-.612 3.132 142.997 142.997 0 0 1-.684 3.096c-.816 3.288-2.256 5.748-4.32 7.38-2.064 1.608-4.836 2.412-8.316 2.412zm.468-5.184c1.296 0 2.436-.384 3.42-1.152.984-.768 1.68-1.992 2.088-3.672.264-1.056.492-2.052.684-2.988.216-.936.408-1.908.576-2.916.312-1.68.168-2.904-.432-3.672-.6-.768-1.548-1.152-2.844-1.152-1.296 0-2.436.384-3.42 1.152-.96.768-1.644 1.992-2.052 3.672-.264 1.008-.504 1.98-.72 2.916a135.78 135.78 0 0 0-.576 2.988c-.288 1.68-.144 2.904.432 3.672.576.768 1.524 1.152 2.844 1.152zM27.761 26a.72.72 0 0 1-.576-.252c-.144-.168-.192-.384-.144-.648l4.968-23.4c.048-.264.18-.48.396-.648.216-.168.444-.252.684-.252h9.576c1.464 0 2.784.168 3.96.504 1.2.336 2.196.852 2.988 1.548.792.696 1.344 1.572 1.656 2.628.312 1.032.324 2.244.036 3.636-.6 2.76-1.824 4.8-3.672 6.12-1.824 1.32-4.284 1.98-7.38 1.98h-4.86L33.737 25.1a1.03 1.03 0 0 1-.396.648c-.192.168-.42.252-.684.252H27.76zm8.568-13.752h4.14c.984 0 1.86-.264 2.628-.792.792-.528 1.308-1.332 1.548-2.412.12-.624.144-1.176.072-1.656s-.324-.864-.756-1.152c-.408-.288-1.044-.432-1.908-.432h-4.32l-1.404 6.444zM57.957 26c-.264 0-.468-.084-.612-.252-.144-.168-.192-.384-.144-.648l3.996-18.648h-6.408a.72.72 0 0 1-.576-.252.78.78 0 0 1-.144-.648l.828-3.852c.048-.264.168-.48.36-.648.216-.168.456-.252.72-.252h19.368c.264 0 .456.084.576.252.144.168.192.384.144.648l-.828 3.852c-.048.24-.18.456-.396.648-.192.168-.42.252-.684.252h-6.408L63.789 25.1a1.03 1.03 0 0 1-.396.648c-.192.168-.42.252-.684.252h-4.752zm18.862 0c-.264 0-.468-.084-.612-.252-.144-.168-.192-.384-.144-.648l5.004-23.4c.048-.264.18-.48.396-.648.216-.168.444-.252.684-.252h4.86a.72.72 0 0 1 .576.252c.144.168.192.384.144.648l-5.004 23.4a1.03 1.03 0 0 1-.396.648.959.959 0 0 1-.648.252h-4.86zm14.768 0c-.264 0-.468-.084-.612-.252-.144-.168-.192-.384-.144-.648L95.8 1.7c.048-.264.18-.48.396-.648.216-.168.456-.252.72-.252h3.888c.384 0 .648.108.792.324.168.192.276.348.324.468l3.888 11.376 8.784-11.376c.072-.12.216-.276.432-.468.24-.216.552-.324.936-.324h3.888c.264 0 .468.084.612.252.144.168.192.384.144.648l-4.968 23.4a1.03 1.03 0 0 1-.396.648 1.145 1.145 0 0 1-.72.252h-4.32a.72.72 0 0 1-.576-.252c-.144-.168-.192-.384-.144-.648l2.808-13.284-5.508 7.308a4.77 4.77 0 0 1-.612.576c-.216.168-.492.252-.828.252h-1.872c-.336 0-.576-.084-.72-.252a1.703 1.703 0 0 1-.324-.576l-2.556-7.632L96.951 25.1a1.03 1.03 0 0 1-.396.648.959.959 0 0 1-.648.252h-4.32zm31.757 0c-.264 0-.468-.084-.612-.252-.144-.168-.192-.384-.144-.648l5.004-23.4c.048-.264.18-.48.396-.648.216-.168.444-.252.684-.252h4.86a.72.72 0 0 1 .576.252c.144.168.192.384.144.648l-5.004 23.4a1.03 1.03 0 0 1-.396.648.959.959 0 0 1-.648.252h-4.86zm22.76.36c-2.4 0-4.368-.336-5.904-1.008-1.512-.672-2.604-1.56-3.276-2.664-.648-1.128-.876-2.316-.684-3.564.048-.192.144-.36.288-.504a.793.793 0 0 1 .576-.252h4.608c.336 0 .576.06.72.18.144.12.288.276.432.468.096.36.288.708.576 1.044.288.336.684.612 1.188.828.528.192 1.176.288 1.944.288 1.392 0 2.508-.216 3.348-.648.84-.432 1.332-1.02 1.476-1.764.144-.528.048-.96-.288-1.296-.312-.36-.876-.672-1.692-.936-.792-.288-1.86-.576-3.204-.864-1.752-.384-3.192-.912-4.32-1.584-1.128-.696-1.92-1.572-2.376-2.628-.432-1.08-.492-2.364-.18-3.852.48-2.208 1.668-3.948 3.564-5.22 1.896-1.296 4.356-1.944 7.38-1.944 1.56 0 2.94.216 4.14.648 1.224.432 2.244 1.008 3.06 1.728.816.72 1.404 1.488 1.764 2.304.36.792.48 1.572.36 2.34a.926.926 0 0 1-.288.54.86.86 0 0 1-.576.216h-4.824c-.24 0-.456-.048-.648-.144a1.176 1.176 0 0 1-.432-.468c0-.528-.276-.984-.828-1.368-.552-.408-1.284-.612-2.196-.612-1.032 0-1.896.192-2.592.576-.696.36-1.128.924-1.296 1.692-.12.48-.06.9.18 1.26.264.36.744.672 1.44.936.72.264 1.704.54 2.952.828 2.112.408 3.768.96 4.968 1.656 1.2.672 2.004 1.524 2.412 2.556.432 1.032.492 2.292.18 3.78-.528 2.448-1.812 4.308-3.852 5.58-2.016 1.248-4.716 1.872-8.1 1.872zm16.384-.36c-.264 0-.468-.084-.612-.252-.144-.168-.192-.384-.144-.648L166.7 1.7c.048-.264.18-.48.396-.648.216-.168.456-.252.72-.252h3.888c.384 0 .648.108.792.324.168.192.276.348.324.468l3.888 11.376 8.784-11.376c.072-.12.216-.276.432-.468.24-.216.552-.324.936-.324h3.888c.264 0 .468.084.612.252.144.168.192.384.144.648l-4.968 23.4a1.03 1.03 0 0 1-.396.648 1.145 1.145 0 0 1-.72.252h-4.32a.72.72 0 0 1-.576-.252c-.144-.168-.192-.384-.144-.648l2.808-13.284-5.508 7.308a4.77 4.77 0 0 1-.612.576c-.216.168-.492.252-.828.252h-1.872c-.336 0-.576-.084-.72-.252a1.703 1.703 0 0 1-.324-.576l-2.556-7.632-2.916 13.608a1.03 1.03 0 0 1-.396.648.959.959 0 0 1-.648.252h-4.32z" fill="#fff"/></svg>