<svg width="36" height="36" viewBox="0 0 36 36" fill="none" xmlns="http://www.w3.org/2000/svg">
<path d="M32.002 3.89568C31.8663 3.7785 31.7012 3.70059 31.5245 3.67035C31.3478 3.64012 31.1662 3.65871 30.9993 3.72412L2.50026 14.8771C2.15363 15.0127 1.86035 15.2572 1.66448 15.5737C1.4686 15.8902 1.38071 16.2617 1.414 16.6325C1.44728 17.0032 1.59995 17.3532 1.84907 17.6297C2.09819 17.9063 2.43032 18.0946 2.79558 18.1663L10.4062 19.6612V28.1254C10.4064 28.5178 10.5238 28.9012 10.7434 29.2264C10.963 29.5516 11.2748 29.8037 11.6387 29.9505C12.0026 30.0972 12.4021 30.1319 12.7858 30.05C13.1696 29.9681 13.5201 29.7734 13.7924 29.4908L17.5387 25.6054L23.3859 30.7312C23.7429 31.047 24.203 31.2216 24.6796 31.2219C24.8878 31.2215 25.0946 31.1888 25.2928 31.1249C25.6176 31.0221 25.9098 30.836 26.1403 30.585C26.3707 30.3341 26.5314 30.0271 26.6062 29.6947L32.3184 4.86178C32.3585 4.6872 32.3503 4.50497 32.2945 4.33472C32.2388 4.16448 32.1376 4.01268 32.002 3.89568ZM3.10073 16.5055C3.09535 16.491 3.09535 16.475 3.10073 16.4605C3.10707 16.4556 3.1142 16.4518 3.12183 16.4493L25.581 7.6574L11.0545 18.0637L3.12183 16.5112L3.10073 16.5055ZM12.5775 28.318C12.5387 28.3582 12.4888 28.386 12.4342 28.3978C12.3796 28.4096 12.3228 28.4048 12.2709 28.3842C12.219 28.3635 12.1744 28.3278 12.1429 28.2818C12.1113 28.2357 12.0942 28.1812 12.0937 28.1254V20.8283L16.2689 24.4846L12.5775 28.318ZM24.9623 29.3137C24.9519 29.3612 24.929 29.4051 24.8958 29.4407C24.8627 29.4763 24.8205 29.5024 24.7739 29.5162C24.7262 29.5329 24.675 29.5365 24.6255 29.5266C24.576 29.5167 24.5301 29.4937 24.4926 29.4599L12.6056 19.0326L30.2343 6.39881L24.9623 29.3137Z" fill="white"/>
</svg>
