<svg width="56" height="56" viewBox="0 0 56 56" fill="none" xmlns="http://www.w3.org/2000/svg">
<g clip-path="url(#clip0_219_499)">
<mask id="mask0_219_499" style="mask-type:luminance" maskUnits="userSpaceOnUse" x="3" y="3" width="50" height="49">
<path d="M3.71419 51.5734V3.42659H52.4364V51.5734H3.71419Z" fill="white" stroke="white" stroke-width="0.85319"/>
</mask>
<g mask="url(#mask0_219_499)">
<path d="M27.893 51.0143C41.0715 51.0143 51.7547 40.455 51.7547 27.4295C51.7547 14.404 41.0715 3.84473 27.893 3.84473C14.7145 3.84473 4.03125 14.404 4.03125 27.4295C4.03125 40.455 14.7145 51.0143 27.893 51.0143Z" fill="white"/>
</g>
<g clip-path="url(#clip1_219_499)">
<path d="M24.8037 19.5992C24.4918 19.5543 24.4769 19.5393 24.6255 19.5244C24.9077 19.4795 25.5613 19.5393 26.0218 19.6441C27.0913 19.8985 28.0569 20.5569 29.0818 21.7091L29.3492 22.0233L29.7354 21.9635C31.3843 21.6941 33.0777 21.9036 34.4888 22.562C34.875 22.7416 35.4841 23.1007 35.5583 23.1905C35.5881 23.2204 35.6326 23.415 35.6623 23.6095C35.7663 24.3128 35.7217 24.8365 35.4989 25.2406C35.3801 25.465 35.3801 25.5249 35.4544 25.7194C35.5138 25.869 35.692 25.9738 35.8554 25.9738C36.2119 25.9738 36.5833 25.4052 36.7616 24.6121L36.8358 24.2978L36.9695 24.4475C37.7271 25.3004 38.3213 26.4826 38.4104 27.3205L38.4401 27.545L38.3064 27.3505C38.0836 27.0063 37.8756 26.7818 37.5934 26.5873C37.0884 26.2431 36.5536 26.1384 35.1424 26.0636C33.8649 25.9888 33.1371 25.884 32.4241 25.6446C31.206 25.2406 30.5821 24.7168 29.1412 22.7865C28.5025 21.9335 28.1014 21.4697 27.7004 21.0806C26.8239 20.2277 25.9475 19.7787 24.8037 19.5992Z" fill="#FF007A"/>
<path d="M35.8705 21.4993C35.9002 20.9307 35.9745 20.5566 36.1379 20.2124C36.1973 20.0777 36.2567 19.958 36.2715 19.958C36.2864 19.958 36.2567 20.0628 36.2121 20.1825C36.0933 20.5117 36.0784 20.9756 36.1527 21.4993C36.2567 22.1727 36.3012 22.2624 37.0143 22.9957C37.3411 23.3398 37.7273 23.7738 37.8758 23.9534L38.1283 24.2826L37.8758 24.0431C37.5639 23.7439 36.8509 23.1752 36.6875 23.1004C36.5835 23.0406 36.5686 23.0406 36.4944 23.1154C36.4349 23.1752 36.4201 23.265 36.4201 23.699C36.4052 24.3724 36.3161 24.7913 36.0933 25.2253C35.9745 25.4498 35.9596 25.4049 36.0636 25.1505C36.1379 24.9559 36.1527 24.8662 36.1527 24.2227C36.1527 22.9209 36.0042 22.6066 35.098 22.0829C34.8752 21.9482 34.489 21.7537 34.2662 21.6489C34.0285 21.5442 33.8503 21.4544 33.8651 21.4544C33.8948 21.4245 34.7712 21.6789 35.1129 21.8285C35.6328 22.038 35.7219 22.053 35.7813 22.038C35.8259 21.9931 35.8556 21.8734 35.8705 21.4993Z" fill="#FF007A"/>
<path d="M25.413 23.7292C24.7891 22.8613 24.3881 21.5146 24.4772 20.512L24.5069 20.1978L24.6555 20.2277C24.9228 20.2726 25.3833 20.4521 25.6061 20.5868C26.2003 20.9459 26.4677 21.4398 26.7202 22.6668C26.7945 23.0259 26.8985 23.4449 26.943 23.5796C27.0173 23.804 27.2995 24.3278 27.5372 24.657C27.7006 24.8964 27.5966 25.0161 27.2253 24.9862C26.6608 24.9263 25.9032 24.4026 25.413 23.7292Z" fill="#FF007A"/>
<path d="M35.1128 30.2382C32.1716 29.0411 31.1318 28.0086 31.1318 26.2578C31.1318 26.0034 31.1467 25.7939 31.1467 25.7939C31.1615 25.7939 31.2655 25.8837 31.3992 25.9885C31.9934 26.4673 32.6618 26.6768 34.5186 26.9462C35.603 27.1108 36.2269 27.2305 36.7914 27.425C38.5888 28.0236 39.7028 29.2506 39.9702 30.9116C40.0445 31.3904 39.9999 32.3032 39.8811 32.7821C39.7771 33.1562 39.48 33.8445 39.4058 33.8595C39.3909 33.8595 39.3612 33.7847 39.3612 33.6649C39.3315 33.0365 39.0195 32.4379 38.4996 31.974C37.8757 31.4353 37.0736 31.0313 35.1128 30.2382Z" fill="#FF007A"/>
<path d="M33.0332 30.7323C33.0035 30.5079 32.9293 30.2236 32.8847 30.1039L32.8104 29.8794L32.9441 30.044C33.1372 30.2685 33.2858 30.5378 33.4195 30.9119C33.5234 31.1962 33.5234 31.286 33.5234 31.7499C33.5234 32.1988 33.5086 32.3035 33.4195 32.5579C33.2709 32.962 33.0927 33.2463 32.7956 33.5605C32.2608 34.1142 31.5627 34.4134 30.5674 34.5481C30.3892 34.5631 29.8841 34.608 29.4385 34.6379C28.3244 34.6978 27.5817 34.8175 26.9132 35.0569C26.8241 35.0868 26.735 35.1168 26.7201 35.1018C26.6904 35.0719 27.1509 34.8025 27.5223 34.6229C28.0422 34.3686 28.5769 34.2339 29.7504 34.0244C30.3297 33.9346 30.9239 33.8149 31.0725 33.755C32.5431 33.2912 33.2709 32.1389 33.0332 30.7323Z" fill="#FF007A"/>
<path d="M34.3849 33.1412C33.9986 32.2882 33.9095 31.4802 34.1175 30.717C34.1472 30.6422 34.1769 30.5674 34.2066 30.5674C34.2363 30.5674 34.3254 30.6123 34.4146 30.6721C34.5928 30.7918 34.9642 31.0013 35.9149 31.5251C37.1181 32.1835 37.8014 32.6923 38.2767 33.2758C38.6926 33.7846 38.9452 34.3682 39.064 35.0865C39.1383 35.4905 39.0937 36.4632 38.9897 36.8672C38.6629 38.1391 37.9202 39.1566 36.8358 39.7402C36.6724 39.83 36.5388 39.8899 36.5239 39.8899C36.509 39.8899 36.5685 39.7402 36.6576 39.5607C37.0141 38.7975 37.0587 38.0643 36.7913 37.2413C36.6279 36.7325 36.2862 36.119 35.6029 35.0865C34.7859 33.8894 34.5928 33.5751 34.3849 33.1412Z" fill="#FF007A"/>
<path d="M23.3183 37.7205C24.4175 36.7928 25.7693 36.1344 27.017 35.9249C27.5518 35.8351 28.4431 35.865 28.9333 35.9997C29.7205 36.2092 30.4336 36.6581 30.8049 37.2118C31.1614 37.7505 31.3248 38.2143 31.4882 39.2468C31.5476 39.6509 31.6219 40.0699 31.6368 40.1596C31.7556 40.6983 31.9933 41.1173 32.2904 41.3418C32.7509 41.6859 33.553 41.7009 34.3403 41.4016C34.474 41.3567 34.5928 41.3119 34.5928 41.3268C34.6225 41.3567 34.2214 41.6261 33.9541 41.7608C33.5827 41.9553 33.2856 42.0152 32.8845 42.0152C32.1715 42.0152 31.5625 41.6411 31.0723 40.8929C30.9683 40.7432 30.7604 40.3093 30.5821 39.9052C30.0622 38.6932 29.7948 38.334 29.1858 37.93C28.651 37.5858 27.9677 37.511 27.4478 37.7654C26.7645 38.0946 26.5863 38.9775 27.0616 39.5162C27.2547 39.7406 27.6112 39.9202 27.9083 39.9651C28.4579 40.0399 28.9333 39.606 28.9333 39.0523C28.9333 38.6932 28.7996 38.4837 28.4431 38.3191C27.9677 38.1096 27.4478 38.349 27.4627 38.8129C27.4627 39.0074 27.5518 39.1271 27.7449 39.2169C27.8637 39.2768 27.8637 39.2768 27.7746 39.2618C27.3438 39.172 27.2399 38.6333 27.5815 38.2891C27.9974 37.8702 28.8738 38.0497 29.1709 38.6333C29.2898 38.8727 29.3046 39.3516 29.2006 39.6509C28.9481 40.3093 28.2351 40.6534 27.5072 40.4589C27.017 40.3242 26.8091 40.1896 26.2149 39.576C25.1751 38.4986 24.774 38.2891 23.2886 38.0647L23.0063 38.0198L23.3183 37.7205Z" fill="#FF007A"/>
<path fill-rule="evenodd" clip-rule="evenodd" d="M15.5047 13.6434C18.9658 17.8782 24.2986 24.4623 24.5659 24.8215C24.7888 25.1207 24.6996 25.4051 24.3283 25.6146C24.1203 25.7343 23.6895 25.854 23.4816 25.854C23.2439 25.854 22.9617 25.7343 22.7685 25.5397C22.6349 25.4051 22.0555 24.5521 20.7483 22.5021C19.7531 20.9309 18.9064 19.629 18.8915 19.614C18.8321 19.5841 18.8321 19.5841 20.6444 22.8462C21.7882 24.8963 22.1595 25.6295 22.1595 25.7193C22.1595 25.9138 22.1001 26.0186 21.8624 26.2879C21.4614 26.7368 21.2831 27.2456 21.1494 28.3081C21.0009 29.4902 20.5998 30.3282 19.456 31.7497C18.7876 32.5877 18.6836 32.7374 18.5202 33.0815C18.3122 33.5005 18.2528 33.7399 18.2231 34.2786C18.1934 34.8473 18.2528 35.2064 18.4162 35.7451C18.5647 36.2239 18.7281 36.5382 19.1292 37.1517C19.4709 37.6904 19.6788 38.0944 19.6788 38.2441C19.6788 38.3638 19.7085 38.3638 20.2433 38.2441C21.5208 37.9448 22.5754 37.436 23.1548 36.8075C23.5113 36.4185 23.6004 36.209 23.6004 35.6703C23.6004 35.3261 23.5855 35.2513 23.4964 35.0418C23.3479 34.7126 23.0656 34.4432 22.4566 34.0243C21.6545 33.4706 21.3128 33.0217 21.2237 32.4231C21.1494 31.9143 21.2385 31.5702 21.6842 30.6275C22.1447 29.6548 22.2635 29.2508 22.3378 28.2632C22.3823 27.6347 22.4566 27.3803 22.6349 27.1858C22.828 26.9763 22.9914 26.9014 23.4519 26.8416C24.2094 26.7368 24.6996 26.5423 25.0858 26.1682C25.4275 25.854 25.576 25.5397 25.5909 25.0759L25.6057 24.7317L25.4126 24.5222C24.7145 23.7141 15.0442 13 14.9997 13C14.9848 13 15.2225 13.2843 15.5047 13.6434ZM20.065 34.9221C20.2284 34.6378 20.1393 34.2786 19.8719 34.0991C19.6194 33.9345 19.2332 34.0093 19.2332 34.2337C19.2332 34.2936 19.2629 34.3535 19.352 34.3834C19.4857 34.4582 19.5006 34.533 19.3966 34.6976C19.2926 34.8622 19.2926 35.0119 19.4263 35.1166C19.6343 35.2812 19.9165 35.1914 20.065 34.9221Z" fill="#FF007A"/>
<path fill-rule="evenodd" clip-rule="evenodd" d="M26.0814 27.0512C25.7249 27.156 25.3833 27.545 25.2793 27.9341C25.2199 28.1735 25.2496 28.6075 25.3536 28.7421C25.517 28.9516 25.6655 29.0115 26.0814 29.0115C26.8984 29.0115 27.5966 28.6524 27.6709 28.2184C27.7451 27.8593 27.4332 27.3655 27.0024 27.141C26.7796 27.0213 26.3191 26.9764 26.0814 27.0512ZM27.0321 27.7994C27.151 27.6199 27.1064 27.4253 26.8836 27.2906C26.4825 27.0363 25.8735 27.2458 25.8735 27.6348C25.8735 27.8293 26.1854 28.0388 26.4825 28.0388C26.6756 28.0388 26.943 27.9191 27.0321 27.7994Z" fill="#FF007A"/>
</g>
</g>
<rect x="5.5" y="5.5" width="45" height="44" rx="22" stroke="#D20065" stroke-width="3"/>
<defs>
<clipPath id="clip0_219_499">
<rect x="4" y="4" width="48" height="47" rx="23.5" fill="white"/>
</clipPath>
<clipPath id="clip1_219_499">
<rect width="25" height="29" fill="white" transform="translate(15 13)"/>
</clipPath>
</defs>
</svg>
