<svg width="50" height="50" viewBox="0 0 50 50" fill="none" xmlns="http://www.w3.org/2000/svg">
<path d="M17.4721 34.2505L15.4165 32.1949L27.75 19.8615L25.6944 17.8059L27.75 15.7504L29.8055 17.8059L31.8611 15.7504L33.9167 17.8059L31.8611 19.8615L33.9167 21.9171L31.8611 23.9727L29.8055 21.9171L17.4721 34.2505ZM31.8611 28.0838L33.9167 26.0282L31.8611 23.9727L29.8055 26.0282L31.8611 28.0838ZM31.8611 28.0838L29.8055 30.1394L31.8611 32.1949L33.9167 30.1394L31.8611 28.0838ZM21.5833 17.8059L23.6388 15.7504L25.6944 17.8059L23.6388 19.8615L21.5833 17.8059ZM21.5833 17.8059L19.5277 19.8615L17.4721 17.8059L19.5277 15.7504L21.5833 17.8059Z" fill="white"/>
</svg>
