<svg width="173" height="148" viewBox="0 0 173 148" fill="none" xmlns="http://www.w3.org/2000/svg">
<path fill-rule="evenodd" clip-rule="evenodd" d="M119.806 53.3731C122.945 53.3731 125.741 55.1622 128.297 56.9828C130.397 58.4779 132.931 59.3514 135.66 59.3514C142.91 59.3514 148.786 53.186 148.786 45.5805C148.786 37.975 142.91 31.8096 135.66 31.8096C133.185 31.8096 130.871 32.528 128.895 33.777C126.092 35.5489 123.122 37.4068 119.806 37.4068C116.49 37.4068 113.52 35.5489 110.717 33.777C108.741 32.528 106.427 31.8096 103.952 31.8096C96.7026 31.8096 90.8257 37.975 90.8257 45.5805C90.8257 53.186 96.7026 59.3514 103.952 59.3514C106.681 59.3514 109.215 58.4779 111.315 56.9828C113.872 55.1621 116.667 53.3731 119.806 53.3731Z" fill="white"/>
<path fill-rule="evenodd" clip-rule="evenodd" d="M38.3121 63.5105C39.883 66.2241 39.7326 69.5331 39.434 72.6513C39.189 75.2109 39.6994 77.8352 41.0636 80.1917C44.6912 86.458 52.9816 88.4574 59.5809 84.6574C66.1802 80.8575 68.5893 72.6973 64.9618 66.431C63.7208 64.2873 61.9341 62.643 59.856 61.5594C56.9131 60.0248 53.8132 58.3851 52.1519 55.5154C50.4933 52.6501 50.6164 49.158 50.7508 45.8531C50.8457 43.5219 50.3108 41.1626 49.0727 39.024C45.4452 32.7577 37.1547 30.7584 30.5554 34.5583C23.9561 38.3582 21.547 46.5184 25.1746 52.7847C26.5418 55.1464 28.5713 56.902 30.923 57.9695C33.7851 59.2686 36.739 60.7929 38.3121 63.5105Z" fill="white"/>
<path fill-rule="evenodd" clip-rule="evenodd" d="M121.1 92.4296C122.671 95.1433 122.52 98.4525 122.222 101.571C121.977 104.13 122.488 106.754 123.852 109.111C127.479 115.377 135.77 117.376 142.369 113.576C148.968 109.776 151.377 101.616 147.75 95.35C146.509 93.2061 144.722 91.5616 142.644 90.478C139.701 88.9437 136.601 87.3041 134.94 84.4345C133.281 81.5694 133.404 78.0774 133.539 74.7728C133.634 72.4413 133.099 70.0818 131.861 67.9429C128.233 61.6767 119.943 59.6773 113.343 63.4772C106.744 67.2771 104.335 75.4374 107.963 81.7036C109.33 84.0651 111.359 85.8206 113.71 86.8881C116.573 88.1874 119.527 89.7118 121.1 92.4296Z" fill="white"/>
<path d="M147.914 63.479C141.315 67.2789 138.906 75.4391 142.534 81.7054C146.161 87.9717 154.452 89.971 161.051 86.1711C167.65 82.3712 170.059 74.2109 166.432 67.9447C162.804 61.6784 154.514 59.6791 147.914 63.479Z" fill="white"/>
<path d="M11.9491 61.9653C5.34983 65.7652 2.94074 73.9255 6.56827 80.1917C10.1958 86.458 18.4863 88.4574 25.0856 84.6574C31.6849 80.8575 34.0939 72.6973 30.4664 66.431C26.8389 60.1648 18.5484 58.1654 11.9491 61.9653Z" fill="white"/>
<path fill-rule="evenodd" clip-rule="evenodd" d="M84.9391 35.9555C86.5088 33.2437 89.4538 31.7197 92.308 30.4196C94.6531 29.3515 96.6766 27.5985 98.0407 25.242C101.668 18.9758 99.2592 10.8155 92.6599 7.01561C86.0606 3.21569 77.7701 5.21506 74.1426 11.4813C72.898 13.6312 72.364 16.0041 72.466 18.3473C72.6097 21.6466 72.7355 25.1337 71.0795 27.9945C69.426 30.8509 66.3422 32.4848 63.4111 34.0087C61.3271 35.0922 59.5351 36.7391 58.2913 38.8877C54.6637 45.1539 57.0728 53.3142 63.6721 57.1141C70.2714 60.914 78.5619 58.9146 82.1894 52.6484C83.5544 50.2905 84.0647 47.6644 83.8186 45.1034C83.5187 41.9829 83.367 38.6712 84.9391 35.9555Z" fill="white"/>
<path fill-rule="evenodd" clip-rule="evenodd" d="M102.898 119.96C104.468 117.249 107.413 115.725 110.268 114.424C112.613 113.356 114.636 111.603 116 109.247C119.628 102.981 117.219 94.8204 110.619 91.0205C104.02 87.2206 95.7296 89.2199 92.1021 95.4862C90.8576 97.636 90.3236 100.009 90.4255 102.352C90.569 105.651 90.6949 109.139 89.0387 112C87.3851 114.856 84.3012 116.49 81.3699 118.015C79.2862 119.098 77.4944 120.745 76.2507 122.893C72.6232 129.159 75.0323 137.32 81.6316 141.12C88.2309 144.92 96.5214 142.92 100.149 136.654C101.514 134.296 102.024 131.67 101.778 129.109C101.478 125.988 101.326 122.676 102.898 119.96Z" fill="white"/>
<path d="M47.1469 29.573C53.7462 33.3729 62.0366 31.3735 65.6642 25.1073C69.2917 18.841 66.8826 10.6808 60.2833 6.88085C53.684 3.08093 45.3935 5.08029 41.766 11.3466C38.1385 17.6128 40.5476 25.7731 47.1469 29.573Z" fill="white"/>
<path d="M115.442 139.879C122.042 143.679 130.332 141.679 133.96 135.413C137.587 129.147 135.178 120.986 128.579 117.187C121.979 113.387 113.689 115.386 110.061 121.652C106.434 127.918 108.843 136.079 115.442 139.879Z" fill="white"/>
<path fill-rule="evenodd" clip-rule="evenodd" d="M27.3665 102.043C27.3665 109.649 33.2433 115.814 40.4928 115.814C43.2212 115.814 45.7551 114.941 47.8545 113.446C50.4117 111.626 53.2076 109.837 56.3467 109.837C59.4858 109.837 62.2817 111.626 64.839 113.447C66.9384 114.941 69.4724 115.815 72.2008 115.815C79.4503 115.815 85.3271 109.649 85.3271 102.044C85.3271 94.4381 79.4503 88.2727 72.2008 88.2727C69.7257 88.2727 67.4107 88.9913 65.4349 90.2406C62.6324 92.0126 59.6626 93.8703 56.3469 93.8703C53.0312 93.8703 50.0614 92.0125 47.2589 90.2405C45.283 88.9912 42.9679 88.2725 40.4928 88.2725C33.2433 88.2725 27.3665 94.4379 27.3665 102.043Z" fill="white"/>
<path d="M42.5007 129.586C42.5007 137.192 48.3776 143.357 55.6271 143.357C62.8766 143.357 68.7534 137.192 68.7534 129.586C68.7534 121.981 62.8766 115.815 55.6271 115.815C48.3776 115.815 42.5007 121.981 42.5007 129.586Z" fill="white"/>
<path d="M107.405 18.0385C107.405 25.644 113.282 31.8094 120.531 31.8094C127.781 31.8094 133.657 25.644 133.657 18.0385C133.657 10.433 127.781 4.26758 120.531 4.26758C113.282 4.26758 107.405 10.433 107.405 18.0385Z" fill="white"/>
</svg>
